<svg xmlns="http://www.w3.org/2000/svg" xmlns:xlink="http://www.w3.org/1999/xlink" width="500" zoomAndPan="magnify" viewBox="0 0 375 374.999991" height="500" preserveAspectRatio="xMidYMid meet" version="1.0"><defs><g/><clipPath id="5aaf7265bc"><path d="M 105.527344 65.742188 L 269.460938 65.742188 L 269.460938 229.675781 L 105.527344 229.675781 Z M 105.527344 65.742188 " clip-rule="nonzero"/></clipPath><clipPath id="15b3df1b5d"><path d="M 187.496094 65.742188 C 142.226562 65.742188 105.527344 102.441406 105.527344 147.710938 C 105.527344 192.980469 142.226562 229.675781 187.496094 229.675781 C 232.765625 229.675781 269.460938 192.980469 269.460938 147.710938 C 269.460938 102.441406 232.765625 65.742188 187.496094 65.742188 Z M 187.496094 65.742188 " clip-rule="nonzero"/></clipPath></defs><rect x="-37.5" width="450" fill="#ffffff" y="-37.499999" height="449.999989" fill-opacity="1"/><rect x="-37.5" width="450" fill="#ffffff" y="-37.499999" height="449.999989" fill-opacity="1"/><g clip-path="url(#5aaf7265bc)"><g clip-path="url(#15b3df1b5d)"><path stroke-linecap="butt" transform="matrix(0.75, 0, 0, 0.75, 105.527935, 65.743385)" fill="none" stroke-linejoin="miter" d="M 109.290878 -0.00159704 C 48.931503 -0.00159704 -0.00078856 48.930695 -0.00078856 109.29007 C -0.00078856 169.649445 48.931503 218.576528 109.290878 218.576528 C 169.650253 218.576528 218.577337 169.649445 218.577337 109.29007 C 218.577337 48.930695 169.650253 -0.00159704 109.290878 -0.00159704 Z M 109.290878 -0.00159704 " stroke="#5271ff" stroke-width="16" stroke-opacity="1" stroke-miterlimit="4"/></g></g><path fill="#000000" d="M 226.601562 123.902344 C 227.207031 123.902344 227.722656 123.691406 228.152344 123.265625 L 239.703125 111.710938 C 239.90625 111.507812 240.066406 111.269531 240.175781 111.003906 C 240.289062 110.734375 240.34375 110.457031 240.34375 110.167969 C 240.34375 109.875 240.289062 109.597656 240.175781 109.332031 C 240.066406 109.0625 239.90625 108.824219 239.703125 108.621094 L 226.898438 95.820312 C 226.691406 95.621094 226.453125 95.46875 226.1875 95.363281 C 225.917969 95.257812 225.640625 95.207031 225.355469 95.207031 C 225.066406 95.207031 224.789062 95.257812 224.523438 95.363281 C 224.257812 95.46875 224.019531 95.621094 223.808594 95.820312 L 212.261719 107.371094 C 211.832031 107.796875 211.617188 108.3125 211.617188 108.917969 L 211.617188 120.8125 L 192.175781 140.257812 L 174.894531 122.972656 C 175.234375 122.085938 175.515625 121.179688 175.730469 120.257812 C 175.945312 119.332031 176.097656 118.398438 176.183594 117.453125 C 176.269531 116.507812 176.289062 115.558594 176.242188 114.613281 C 176.195312 113.664062 176.085938 112.722656 175.90625 111.792969 C 175.730469 110.859375 175.488281 109.945312 175.183594 109.042969 C 174.878906 108.144531 174.511719 107.273438 174.085938 106.425781 C 173.660156 105.578125 173.175781 104.761719 172.636719 103.980469 C 172.097656 103.203125 171.503906 102.460938 170.859375 101.765625 C 170.21875 101.066406 169.53125 100.414062 168.796875 99.8125 C 168.0625 99.210938 167.289062 98.664062 166.480469 98.167969 C 165.667969 97.675781 164.828125 97.238281 163.957031 96.859375 C 163.085938 96.484375 162.195312 96.167969 161.28125 95.914062 C 160.363281 95.664062 159.4375 95.472656 158.496094 95.351562 C 157.554688 95.226562 156.609375 95.167969 155.660156 95.175781 C 154.710938 95.183594 153.765625 95.257812 152.828125 95.398438 C 151.890625 95.539062 150.964844 95.742188 150.054688 96.011719 C 149.871094 96.0625 149.699219 96.140625 149.539062 96.238281 C 149.375 96.335938 149.230469 96.453125 149.097656 96.589844 C 148.964844 96.726562 148.851562 96.878906 148.761719 97.042969 C 148.667969 97.207031 148.597656 97.382812 148.550781 97.566406 C 148.503906 97.75 148.480469 97.9375 148.484375 98.125 C 148.484375 98.316406 148.511719 98.503906 148.5625 98.6875 C 148.609375 98.867188 148.683594 99.042969 148.777344 99.207031 C 148.875 99.371094 148.988281 99.519531 149.121094 99.652344 L 158.085938 108.621094 L 156.773438 116.535156 L 148.867188 117.847656 L 139.878906 108.902344 C 139.746094 108.765625 139.597656 108.652344 139.433594 108.558594 C 139.269531 108.460938 139.09375 108.390625 138.914062 108.339844 C 138.730469 108.289062 138.542969 108.261719 138.355469 108.261719 C 138.164062 108.257812 137.976562 108.28125 137.792969 108.328125 C 137.609375 108.375 137.4375 108.445312 137.269531 108.535156 C 137.105469 108.628906 136.953125 108.742188 136.816406 108.871094 C 136.679688 109.003906 136.5625 109.148438 136.464844 109.3125 C 136.367188 109.472656 136.289062 109.644531 136.238281 109.828125 C 135.96875 110.738281 135.761719 111.664062 135.625 112.601562 C 135.484375 113.542969 135.410156 114.484375 135.402344 115.433594 C 135.390625 116.382812 135.449219 117.328125 135.574219 118.269531 C 135.695312 119.210938 135.886719 120.140625 136.136719 121.054688 C 136.390625 121.96875 136.707031 122.863281 137.082031 123.734375 C 137.460938 124.605469 137.894531 125.445312 138.390625 126.257812 C 138.886719 127.066406 139.433594 127.839844 140.035156 128.574219 C 140.636719 129.308594 141.289062 129.996094 141.988281 130.640625 C 142.683594 131.28125 143.425781 131.875 144.203125 132.414062 C 144.984375 132.953125 145.800781 133.4375 146.648438 133.863281 C 147.496094 134.292969 148.371094 134.65625 149.269531 134.960938 C 150.167969 135.265625 151.082031 135.507812 152.015625 135.683594 C 152.949219 135.863281 153.890625 135.972656 154.835938 136.019531 C 155.785156 136.066406 156.734375 136.046875 157.679688 135.960938 C 158.625 135.875 159.558594 135.722656 160.484375 135.507812 C 161.40625 135.289062 162.3125 135.011719 163.199219 134.667969 L 169.597656 141.089844 L 164.820312 145.851562 C 164.613281 146.058594 164.457031 146.292969 164.34375 146.5625 C 164.234375 146.832031 164.175781 147.109375 164.175781 147.402344 C 164.175781 147.691406 164.234375 147.96875 164.34375 148.238281 C 164.457031 148.507812 164.613281 148.742188 164.820312 148.949219 L 165.484375 149.609375 C 165.738281 149.859375 165.929688 150.152344 166.066406 150.480469 C 166.203125 150.808594 166.273438 151.152344 166.273438 151.507812 C 166.273438 151.863281 166.207031 152.207031 166.070312 152.535156 C 165.933594 152.867188 165.742188 153.15625 165.488281 153.410156 C 165.238281 153.660156 164.945312 153.855469 164.617188 153.992188 C 164.289062 154.128906 163.945312 154.195312 163.589844 154.199219 C 163.234375 154.199219 162.890625 154.128906 162.5625 153.992188 C 162.230469 153.859375 161.941406 153.664062 161.6875 153.414062 L 161.019531 152.742188 C 160.59375 152.316406 160.078125 152.101562 159.472656 152.101562 C 158.867188 152.101562 158.351562 152.3125 157.925781 152.738281 L 140.546875 170.125 C 140.140625 170.53125 139.757812 170.957031 139.390625 171.402344 C 139.027344 171.847656 138.683594 172.308594 138.367188 172.785156 C 138.046875 173.265625 137.75 173.757812 137.480469 174.265625 C 137.210938 174.773438 136.964844 175.292969 136.742188 175.824219 C 136.523438 176.355469 136.332031 176.898438 136.164062 177.449219 C 135.996094 178 135.859375 178.554688 135.746094 179.121094 C 135.632812 179.683594 135.550781 180.253906 135.492188 180.824219 C 135.4375 181.398438 135.410156 181.972656 135.410156 182.546875 C 135.410156 183.121094 135.4375 183.695312 135.496094 184.269531 C 135.550781 184.839844 135.636719 185.410156 135.746094 185.972656 C 135.859375 186.535156 136 187.09375 136.167969 187.644531 C 136.335938 188.195312 136.527344 188.734375 136.746094 189.269531 C 136.96875 189.800781 137.214844 190.320312 137.484375 190.824219 C 137.757812 191.332031 138.050781 191.824219 138.371094 192.304688 C 138.691406 192.78125 139.035156 193.242188 139.398438 193.6875 C 139.761719 194.132812 140.148438 194.558594 140.554688 194.964844 C 140.960938 195.371094 141.386719 195.757812 141.832031 196.125 C 142.277344 196.488281 142.738281 196.832031 143.21875 197.148438 C 143.695312 197.46875 144.1875 197.765625 144.695312 198.035156 C 145.203125 198.308594 145.722656 198.554688 146.253906 198.773438 C 146.785156 198.992188 147.324219 199.1875 147.875 199.355469 C 148.425781 199.519531 148.984375 199.660156 149.546875 199.773438 C 150.113281 199.886719 150.679688 199.96875 151.253906 200.027344 C 151.824219 200.082031 152.398438 200.113281 152.976562 200.113281 C 153.550781 200.113281 154.125 200.085938 154.695312 200.027344 C 155.269531 199.972656 155.835938 199.886719 156.402344 199.777344 C 156.964844 199.664062 157.523438 199.523438 158.074219 199.355469 C 158.625 199.191406 159.164062 198.996094 159.695312 198.777344 C 160.226562 198.558594 160.746094 198.3125 161.253906 198.042969 C 161.761719 197.769531 162.253906 197.476562 162.734375 197.15625 C 163.210938 196.835938 163.675781 196.496094 164.121094 196.128906 C 164.5625 195.765625 164.988281 195.378906 165.398438 194.972656 L 182.777344 177.59375 C 182.984375 177.386719 183.140625 177.152344 183.253906 176.882812 C 183.363281 176.613281 183.421875 176.335938 183.421875 176.042969 C 183.421875 175.753906 183.363281 175.476562 183.253906 175.207031 C 183.140625 174.9375 182.984375 174.703125 182.777344 174.496094 L 182.113281 173.832031 C 181.859375 173.582031 181.667969 173.289062 181.53125 172.960938 C 181.394531 172.632812 181.324219 172.289062 181.324219 171.933594 C 181.324219 171.574219 181.394531 171.234375 181.53125 170.902344 C 181.667969 170.574219 181.859375 170.285156 182.113281 170.03125 C 182.367188 169.785156 182.660156 169.597656 182.988281 169.464844 C 183.316406 169.332031 183.660156 169.265625 184.011719 169.265625 C 184.367188 169.265625 184.707031 169.332031 185.035156 169.464844 C 185.367188 169.597656 185.65625 169.785156 185.914062 170.03125 L 186.582031 170.695312 C 186.785156 170.902344 187.023438 171.058594 187.289062 171.167969 C 187.558594 171.28125 187.835938 171.335938 188.125 171.335938 C 188.414062 171.335938 188.691406 171.28125 188.960938 171.167969 C 189.226562 171.058594 189.464844 170.902344 189.667969 170.695312 L 194.429688 165.921875 L 200.832031 172.328125 C 200.492188 173.214844 200.210938 174.117188 199.996094 175.042969 C 199.78125 175.964844 199.632812 176.902344 199.546875 177.847656 C 199.460938 178.792969 199.441406 179.738281 199.488281 180.683594 C 199.535156 181.632812 199.648438 182.574219 199.828125 183.503906 C 200.003906 184.4375 200.246094 185.351562 200.550781 186.25 C 200.855469 187.148438 201.222656 188.023438 201.648438 188.871094 C 202.074219 189.71875 202.558594 190.53125 203.097656 191.3125 C 203.636719 192.089844 204.230469 192.832031 204.871094 193.527344 C 205.515625 194.226562 206.203125 194.875 206.9375 195.476562 C 207.671875 196.078125 208.441406 196.628906 209.253906 197.121094 C 210.0625 197.617188 210.902344 198.054688 211.773438 198.429688 C 212.644531 198.808594 213.535156 199.125 214.449219 199.378906 C 215.363281 199.628906 216.292969 199.820312 217.234375 199.941406 C 218.171875 200.066406 219.117188 200.125 220.066406 200.117188 C 221.015625 200.109375 221.960938 200.039062 222.898438 199.898438 C 223.835938 199.757812 224.761719 199.554688 225.671875 199.289062 C 225.851562 199.234375 226.027344 199.160156 226.1875 199.0625 C 226.351562 198.964844 226.496094 198.847656 226.628906 198.710938 C 226.761719 198.574219 226.871094 198.421875 226.964844 198.257812 C 227.058594 198.089844 227.125 197.917969 227.171875 197.734375 C 227.222656 197.546875 227.242188 197.363281 227.242188 197.171875 C 227.238281 196.984375 227.214844 196.796875 227.164062 196.613281 C 227.113281 196.429688 227.042969 196.257812 226.945312 196.09375 C 226.851562 195.929688 226.738281 195.78125 226.601562 195.644531 L 217.640625 186.679688 L 218.949219 178.765625 L 226.855469 177.453125 L 235.824219 186.417969 C 235.957031 186.550781 236.105469 186.664062 236.269531 186.761719 C 236.433594 186.855469 236.609375 186.929688 236.792969 186.976562 C 236.972656 187.027344 237.160156 187.054688 237.347656 187.054688 C 237.539062 187.058594 237.726562 187.035156 237.910156 186.988281 C 238.09375 186.941406 238.265625 186.871094 238.433594 186.78125 C 238.597656 186.6875 238.75 186.578125 238.886719 186.445312 C 239.023438 186.3125 239.140625 186.167969 239.238281 186.003906 C 239.335938 185.84375 239.414062 185.671875 239.464844 185.488281 C 239.734375 184.578125 239.941406 183.652344 240.082031 182.714844 C 240.21875 181.777344 240.292969 180.832031 240.304688 179.882812 C 240.3125 178.933594 240.253906 177.988281 240.128906 177.046875 C 240.007812 176.105469 239.820312 175.175781 239.566406 174.261719 C 239.3125 173.347656 239 172.453125 238.621094 171.582031 C 238.242188 170.710938 237.808594 169.871094 237.3125 169.058594 C 236.820312 168.25 236.269531 167.476562 235.667969 166.742188 C 235.066406 166.011719 234.414062 165.320312 233.71875 164.679688 C 233.019531 164.035156 232.28125 163.441406 231.5 162.902344 C 230.71875 162.363281 229.902344 161.878906 229.054688 161.453125 C 228.207031 161.027344 227.335938 160.660156 226.433594 160.355469 C 225.535156 160.050781 224.621094 159.808594 223.6875 159.632812 C 222.753906 159.457031 221.8125 159.34375 220.867188 159.296875 C 219.917969 159.25 218.972656 159.273438 218.027344 159.359375 C 217.082031 159.445312 216.144531 159.59375 215.222656 159.8125 C 214.296875 160.027344 213.390625 160.304688 212.507812 160.648438 L 195.226562 143.363281 L 214.671875 123.921875 Z M 188.046875 166.140625 C 187.363281 165.683594 186.621094 165.351562 185.820312 165.144531 C 185.023438 164.941406 184.214844 164.875 183.394531 164.949219 C 182.570312 165.019531 181.785156 165.226562 181.035156 165.570312 C 180.285156 165.910156 179.613281 166.367188 179.023438 166.941406 C 178.730469 167.230469 178.46875 167.546875 178.234375 167.882812 C 177.996094 168.21875 177.792969 168.574219 177.621094 168.945312 C 177.445312 169.320312 177.304688 169.703125 177.199219 170.101562 C 177.09375 170.496094 177.019531 170.902344 176.984375 171.308594 C 176.949219 171.71875 176.949219 172.128906 176.980469 172.539062 C 177.015625 172.949219 177.085938 173.351562 177.191406 173.75 C 177.296875 174.144531 177.4375 174.53125 177.609375 174.902344 C 177.78125 175.277344 177.984375 175.632812 178.21875 175.96875 L 162.304688 191.882812 C 161.757812 192.425781 161.167969 192.921875 160.53125 193.363281 C 159.898438 193.804688 159.230469 194.1875 158.527344 194.511719 C 157.828125 194.835938 157.101562 195.09375 156.355469 195.292969 C 155.605469 195.488281 154.847656 195.617188 154.078125 195.683594 C 153.308594 195.746094 152.539062 195.742188 151.769531 195.667969 C 150.996094 195.597656 150.242188 195.457031 149.496094 195.25 C 148.75 195.046875 148.027344 194.777344 147.332031 194.445312 C 146.632812 194.113281 145.96875 193.722656 145.339844 193.273438 L 163.886719 174.71875 C 164.097656 174.515625 164.261719 174.28125 164.378906 174.011719 C 164.496094 173.742188 164.554688 173.460938 164.554688 173.167969 C 164.558594 172.871094 164.503906 172.589844 164.394531 172.320312 C 164.28125 172.046875 164.121094 171.808594 163.914062 171.601562 C 163.707031 171.394531 163.46875 171.234375 163.199219 171.125 C 162.925781 171.011719 162.644531 170.957031 162.351562 170.960938 C 162.058594 170.964844 161.777344 171.023438 161.507812 171.136719 C 161.238281 171.253906 161 171.417969 160.796875 171.628906 L 142.246094 190.183594 C 141.792969 189.558594 141.398438 188.894531 141.0625 188.195312 C 140.726562 187.5 140.457031 186.777344 140.25 186.03125 C 140.042969 185.285156 139.902344 184.527344 139.828125 183.757812 C 139.757812 182.984375 139.75 182.214844 139.816406 181.441406 C 139.878906 180.671875 140.007812 179.910156 140.207031 179.164062 C 140.40625 178.414062 140.667969 177.691406 140.992188 176.988281 C 141.320312 176.285156 141.703125 175.617188 142.148438 174.984375 C 142.59375 174.351562 143.089844 173.761719 143.640625 173.214844 L 159.550781 157.300781 C 159.886719 157.535156 160.242188 157.738281 160.617188 157.914062 C 160.988281 158.085938 161.375 158.226562 161.773438 158.332031 C 162.167969 158.441406 162.574219 158.511719 162.980469 158.546875 C 163.390625 158.582031 163.800781 158.582031 164.210938 158.546875 C 164.621094 158.511719 165.023438 158.4375 165.421875 158.332031 C 165.820312 158.226562 166.203125 158.085938 166.578125 157.910156 C 166.949219 157.738281 167.304688 157.535156 167.640625 157.296875 C 167.980469 157.0625 168.292969 156.796875 168.582031 156.507812 C 168.875 156.214844 169.136719 155.902344 169.375 155.566406 C 169.609375 155.230469 169.816406 154.875 169.988281 154.5 C 170.164062 154.128906 170.304688 153.742188 170.410156 153.347656 C 170.515625 152.949219 170.589844 152.546875 170.625 152.136719 C 170.660156 151.726562 170.660156 151.316406 170.625 150.90625 C 170.589844 150.496094 170.519531 150.09375 170.414062 149.695312 C 170.308594 149.296875 170.167969 148.914062 169.992188 148.539062 C 169.820312 148.167969 169.617188 147.8125 169.378906 147.476562 L 172.691406 144.164062 L 186.707031 158.183594 L 191.371094 162.832031 Z M 212.992188 165.195312 C 213.613281 164.898438 214.25 164.640625 214.90625 164.425781 C 215.558594 164.210938 216.226562 164.039062 216.902344 163.910156 C 217.578125 163.78125 218.261719 163.695312 218.949219 163.652344 C 219.636719 163.609375 220.324219 163.613281 221.011719 163.660156 C 221.699219 163.707031 222.378906 163.796875 223.054688 163.929688 C 223.730469 164.0625 224.394531 164.242188 225.046875 164.460938 C 225.703125 164.679688 226.335938 164.941406 226.957031 165.242188 C 227.578125 165.546875 228.175781 165.886719 228.75 166.265625 C 229.324219 166.644531 229.875 167.058594 230.394531 167.507812 C 230.917969 167.957031 231.410156 168.4375 231.871094 168.949219 C 232.332031 169.460938 232.757812 170 233.148438 170.570312 C 233.539062 171.136719 233.890625 171.726562 234.207031 172.339844 C 234.519531 172.953125 234.796875 173.582031 235.027344 174.230469 C 235.261719 174.878906 235.453125 175.539062 235.601562 176.210938 C 235.75 176.882812 235.855469 177.5625 235.917969 178.25 C 235.980469 178.9375 235.996094 179.625 235.96875 180.3125 L 229.191406 173.542969 C 228.941406 173.292969 228.648438 173.113281 228.3125 173.007812 C 227.976562 172.898438 227.632812 172.875 227.285156 172.929688 L 216.730469 174.710938 C 216.269531 174.789062 215.875 174.992188 215.542969 175.320312 C 215.214844 175.652344 215.007812 176.046875 214.933594 176.507812 L 213.152344 187.0625 C 213.09375 187.410156 213.121094 187.753906 213.226562 188.089844 C 213.335938 188.425781 213.515625 188.71875 213.765625 188.96875 L 220.53125 195.746094 C 218.292969 195.816406 216.136719 195.441406 214.054688 194.625 C 211.972656 193.8125 210.132812 192.617188 208.539062 191.050781 C 207.957031 190.464844 207.425781 189.839844 206.9375 189.175781 C 206.453125 188.507812 206.019531 187.808594 205.640625 187.074219 C 205.261719 186.339844 204.945312 185.582031 204.683594 184.800781 C 204.421875 184.019531 204.21875 183.21875 204.082031 182.40625 C 203.941406 181.59375 203.867188 180.773438 203.851562 179.949219 C 203.839844 179.125 203.890625 178.304688 204.003906 177.488281 C 204.117188 176.671875 204.292969 175.867188 204.53125 175.078125 C 204.765625 174.285156 205.0625 173.519531 205.417969 172.773438 C 205.617188 172.355469 205.675781 171.917969 205.59375 171.460938 C 205.511719 171.007812 205.308594 170.617188 204.980469 170.289062 L 165.238281 130.53125 C 164.914062 130.203125 164.523438 129.996094 164.066406 129.917969 C 163.609375 129.835938 163.171875 129.894531 162.75 130.09375 C 162.128906 130.390625 161.492188 130.648438 160.839844 130.863281 C 160.183594 131.078125 159.519531 131.25 158.84375 131.382812 C 158.167969 131.511719 157.484375 131.597656 156.796875 131.640625 C 156.109375 131.679688 155.421875 131.679688 154.734375 131.632812 C 154.046875 131.585938 153.367188 131.496094 152.691406 131.359375 C 152.015625 131.226562 151.351562 131.050781 150.699219 130.832031 C 150.046875 130.609375 149.410156 130.351562 148.789062 130.046875 C 148.171875 129.746094 147.574219 129.40625 146.996094 129.027344 C 146.421875 128.652344 145.871094 128.238281 145.351562 127.789062 C 144.828125 127.339844 144.335938 126.859375 143.875 126.347656 C 143.417969 125.832031 142.992188 125.292969 142.597656 124.726562 C 142.207031 124.160156 141.855469 123.570312 141.539062 122.957031 C 141.226562 122.34375 140.949219 121.714844 140.71875 121.066406 C 140.484375 120.417969 140.292969 119.757812 140.140625 119.085938 C 139.992188 118.414062 139.886719 117.734375 139.828125 117.046875 C 139.765625 116.363281 139.746094 115.675781 139.773438 114.988281 L 146.550781 121.757812 C 146.800781 122.007812 147.09375 122.183594 147.429688 122.292969 C 147.765625 122.402344 148.109375 122.425781 148.457031 122.367188 L 159.011719 120.589844 C 159.472656 120.511719 159.867188 120.308594 160.195312 119.976562 C 160.527344 119.648438 160.730469 119.25 160.804688 118.792969 L 162.589844 108.234375 C 162.648438 107.886719 162.621094 107.546875 162.515625 107.207031 C 162.40625 106.871094 162.226562 106.578125 161.976562 106.328125 L 155.214844 99.550781 C 157.449219 99.488281 159.605469 99.867188 161.683594 100.683594 C 163.765625 101.5 165.605469 102.691406 167.199219 104.257812 C 167.78125 104.839844 168.316406 105.46875 168.800781 106.132812 C 169.289062 106.800781 169.71875 107.5 170.097656 108.234375 C 170.476562 108.964844 170.796875 109.722656 171.058594 110.507812 C 171.320312 111.289062 171.519531 112.085938 171.660156 112.898438 C 171.800781 113.714844 171.875 114.53125 171.886719 115.355469 C 171.902344 116.183594 171.851562 117.003906 171.738281 117.820312 C 171.625 118.636719 171.449219 119.441406 171.210938 120.230469 C 170.976562 121.023438 170.679688 121.789062 170.324219 122.535156 C 170.128906 122.953125 170.070312 123.390625 170.148438 123.84375 C 170.230469 124.300781 170.433594 124.691406 170.761719 125.019531 L 210.511719 164.769531 C 210.839844 165.09375 211.230469 165.296875 211.683594 165.375 C 212.136719 165.453125 212.574219 165.394531 212.992188 165.195312 Z M 215.992188 109.824219 L 225.351562 100.457031 L 235.0625 110.167969 L 225.699219 119.53125 L 215.992188 119.53125 Z M 215.992188 109.824219 " fill-opacity="1" fill-rule="nonzero"/><g fill="#000000" fill-opacity="1"><g transform="translate(70.335937, 276.961739)"><g><path d="M 2.09375 -28.875 L 12.421875 -28.875 C 15.203125 -28.875 17.46875 -28.132812 19.21875 -26.65625 C 20.96875 -25.175781 21.84375 -23.054688 21.84375 -20.296875 C 21.84375 -18.171875 21.3125 -16.390625 20.25 -14.953125 C 19.1875 -13.523438 17.742188 -12.519531 15.921875 -11.9375 L 25.859375 0 L 17.5 0 L 8.6875 -11.40625 L 8.6875 0 L 2.09375 0 Z M 8.6875 -16.0625 L 9.453125 -16.0625 C 10.054688 -16.0625 10.566406 -16.070312 10.984375 -16.09375 C 11.410156 -16.125 11.890625 -16.207031 12.421875 -16.34375 C 12.960938 -16.488281 13.394531 -16.6875 13.71875 -16.9375 C 14.039062 -17.195312 14.316406 -17.570312 14.546875 -18.0625 C 14.785156 -18.550781 14.90625 -19.144531 14.90625 -19.84375 C 14.90625 -20.539062 14.785156 -21.132812 14.546875 -21.625 C 14.316406 -22.113281 14.039062 -22.488281 13.71875 -22.75 C 13.394531 -23.007812 12.960938 -23.207031 12.421875 -23.34375 C 11.890625 -23.488281 11.410156 -23.570312 10.984375 -23.59375 C 10.566406 -23.613281 10.054688 -23.625 9.453125 -23.625 L 8.6875 -23.625 Z M 8.6875 -16.0625 "/></g></g></g><g fill="#000000" fill-opacity="1"><g transform="translate(95.39028, 276.961739)"><g><path d="M 2.6875 -27.953125 C 3.414062 -28.679688 4.28125 -29.046875 5.28125 -29.046875 C 6.289062 -29.046875 7.15625 -28.679688 7.875 -27.953125 C 8.59375 -27.234375 8.953125 -26.375 8.953125 -25.375 C 8.953125 -24.375 8.59375 -23.507812 7.875 -22.78125 C 7.15625 -22.0625 6.289062 -21.703125 5.28125 -21.703125 C 4.28125 -21.703125 3.414062 -22.0625 2.6875 -22.78125 C 1.96875 -23.507812 1.609375 -24.375 1.609375 -25.375 C 1.609375 -26.375 1.96875 -27.234375 2.6875 -27.953125 Z M 2.09375 -17.953125 L 2.09375 0 L 8.296875 0 L 8.296875 -17.953125 Z M 2.09375 -17.953125 "/></g></g></g><g fill="#000000" fill-opacity="1"><g transform="translate(105.957891, 276.961739)"><g><path d="M 11.65625 -13.40625 C 10.488281 -13.40625 9.484375 -12.972656 8.640625 -12.109375 C 7.804688 -11.242188 7.390625 -10.207031 7.390625 -9 C 7.390625 -7.757812 7.804688 -6.707031 8.640625 -5.84375 C 9.484375 -4.976562 10.488281 -4.546875 11.65625 -4.546875 C 12.21875 -4.546875 12.75 -4.613281 13.25 -4.75 C 13.75 -4.894531 14.113281 -5.039062 14.34375 -5.1875 L 14.671875 -5.390625 L 16.765625 -1.078125 C 16.597656 -0.960938 16.367188 -0.816406 16.078125 -0.640625 C 15.785156 -0.472656 15.117188 -0.238281 14.078125 0.0625 C 13.046875 0.375 11.9375 0.53125 10.75 0.53125 C 8.113281 0.53125 5.796875 -0.394531 3.796875 -2.25 C 1.804688 -4.113281 0.8125 -6.335938 0.8125 -8.921875 C 0.8125 -11.535156 1.804688 -13.78125 3.796875 -15.65625 C 5.796875 -17.539062 8.113281 -18.484375 10.75 -18.484375 C 11.9375 -18.484375 13.03125 -18.34375 14.03125 -18.0625 C 15.039062 -17.78125 15.753906 -17.5 16.171875 -17.21875 L 16.765625 -16.796875 L 14.671875 -12.5625 C 13.898438 -13.125 12.894531 -13.40625 11.65625 -13.40625 Z M 11.65625 -13.40625 "/></g></g></g><g fill="#000000" fill-opacity="1"><g transform="translate(123.139007, 276.961739)"><g><path d="M 3.328125 -2.21875 C 1.648438 -4.050781 0.8125 -6.296875 0.8125 -8.953125 C 0.8125 -11.617188 1.648438 -13.875 3.328125 -15.71875 C 5.003906 -17.5625 7.140625 -18.484375 9.734375 -18.484375 C 12.109375 -18.484375 14.066406 -17.734375 15.609375 -16.234375 L 15.609375 -17.953125 L 21.8125 -17.953125 L 21.8125 0 L 15.6875 0 L 15.6875 -2.03125 L 15.609375 -2.03125 C 14.066406 -0.320312 12.109375 0.53125 9.734375 0.53125 C 7.140625 0.53125 5.003906 -0.382812 3.328125 -2.21875 Z M 8.59375 -12 C 7.789062 -11.207031 7.390625 -10.191406 7.390625 -8.953125 C 7.390625 -7.722656 7.769531 -6.71875 8.53125 -5.9375 C 9.300781 -5.15625 10.316406 -4.765625 11.578125 -4.765625 C 12.796875 -4.765625 13.796875 -5.160156 14.578125 -5.953125 C 15.359375 -6.742188 15.75 -7.742188 15.75 -8.953125 C 15.75 -10.191406 15.34375 -11.207031 14.53125 -12 C 13.726562 -12.789062 12.742188 -13.1875 11.578125 -13.1875 C 10.390625 -13.1875 9.394531 -12.789062 8.59375 -12 Z M 8.59375 -12 "/></g></g></g><g fill="#000000" fill-opacity="1"><g transform="translate(147.038607, 276.961739)"><g><path d="M 2.09375 0 L 2.09375 -17.953125 L 8.296875 -17.953125 L 8.296875 -15.359375 L 8.359375 -15.359375 C 8.410156 -15.453125 8.488281 -15.566406 8.59375 -15.703125 C 8.695312 -15.847656 8.921875 -16.09375 9.265625 -16.4375 C 9.617188 -16.789062 9.992188 -17.109375 10.390625 -17.390625 C 10.785156 -17.671875 11.296875 -17.921875 11.921875 -18.140625 C 12.554688 -18.367188 13.203125 -18.484375 13.859375 -18.484375 C 14.535156 -18.484375 15.195312 -18.390625 15.84375 -18.203125 C 16.5 -18.015625 16.984375 -17.828125 17.296875 -17.640625 L 17.78125 -17.359375 L 15.1875 -12.109375 C 14.414062 -12.765625 13.34375 -13.09375 11.96875 -13.09375 C 11.21875 -13.09375 10.570312 -12.925781 10.03125 -12.59375 C 9.5 -12.269531 9.125 -11.875 8.90625 -11.40625 C 8.6875 -10.9375 8.53125 -10.539062 8.4375 -10.21875 C 8.34375 -9.894531 8.296875 -9.640625 8.296875 -9.453125 L 8.296875 0 Z M 2.09375 0 "/></g></g></g><g fill="#000000" fill-opacity="1"><g transform="translate(164.464673, 276.961739)"><g><path d="M 3.328125 -2.21875 C 1.648438 -4.050781 0.8125 -6.296875 0.8125 -8.953125 C 0.8125 -11.617188 1.648438 -13.875 3.328125 -15.71875 C 5.003906 -17.5625 7.140625 -18.484375 9.734375 -18.484375 C 12.109375 -18.484375 14.066406 -17.734375 15.609375 -16.234375 L 15.609375 -30.09375 L 21.8125 -30.09375 L 21.8125 0 L 15.6875 0 L 15.6875 -2.03125 L 15.609375 -2.03125 C 14.066406 -0.320312 12.109375 0.53125 9.734375 0.53125 C 7.140625 0.53125 5.003906 -0.382812 3.328125 -2.21875 Z M 8.59375 -12 C 7.789062 -11.207031 7.390625 -10.191406 7.390625 -8.953125 C 7.390625 -7.722656 7.769531 -6.71875 8.53125 -5.9375 C 9.300781 -5.15625 10.316406 -4.765625 11.578125 -4.765625 C 12.796875 -4.765625 13.796875 -5.160156 14.578125 -5.953125 C 15.359375 -6.742188 15.75 -7.742188 15.75 -8.953125 C 15.75 -10.191406 15.34375 -11.207031 14.53125 -12 C 13.726562 -12.789062 12.742188 -13.1875 11.578125 -13.1875 C 10.390625 -13.1875 9.394531 -12.789062 8.59375 -12 Z M 8.59375 -12 "/></g></g></g><g fill="#000000" fill-opacity="1"><g transform="translate(188.364273, 276.961739)"><g><path d="M 3.796875 -2.125 C 1.804688 -3.90625 0.8125 -6.179688 0.8125 -8.953125 C 0.8125 -11.734375 1.847656 -14.015625 3.921875 -15.796875 C 5.992188 -17.585938 8.5625 -18.484375 11.625 -18.484375 C 14.632812 -18.484375 17.171875 -17.582031 19.234375 -15.78125 C 21.296875 -13.988281 22.328125 -11.710938 22.328125 -8.953125 C 22.328125 -6.203125 21.316406 -3.929688 19.296875 -2.140625 C 17.285156 -0.359375 14.726562 0.53125 11.625 0.53125 C 8.40625 0.53125 5.796875 -0.351562 3.796875 -2.125 Z M 8.59375 -12 C 7.789062 -11.207031 7.390625 -10.191406 7.390625 -8.953125 C 7.390625 -7.722656 7.769531 -6.71875 8.53125 -5.9375 C 9.300781 -5.15625 10.316406 -4.765625 11.578125 -4.765625 C 12.796875 -4.765625 13.796875 -5.160156 14.578125 -5.953125 C 15.359375 -6.742188 15.75 -7.742188 15.75 -8.953125 C 15.75 -10.191406 15.34375 -11.207031 14.53125 -12 C 13.726562 -12.789062 12.742188 -13.1875 11.578125 -13.1875 C 10.390625 -13.1875 9.394531 -12.789062 8.59375 -12 Z M 8.59375 -12 "/></g></g></g><g fill="#000000" fill-opacity="1"><g transform="translate(211.494051, 276.961739)"><g/></g></g><g fill="#000000" fill-opacity="1"><g transform="translate(221.046891, 276.961739)"><g><path d="M 12.734375 -29.40625 C 14.296875 -29.40625 15.820312 -29.175781 17.3125 -28.71875 C 18.8125 -28.257812 19.925781 -27.8125 20.65625 -27.375 L 21.703125 -26.671875 L 19.046875 -21.421875 C 18.828125 -21.554688 18.53125 -21.734375 18.15625 -21.953125 C 17.789062 -22.179688 17.09375 -22.484375 16.0625 -22.859375 C 15.039062 -23.234375 14.082031 -23.421875 13.1875 -23.421875 C 12.09375 -23.421875 11.25 -23.1875 10.65625 -22.71875 C 10.0625 -22.25 9.765625 -21.617188 9.765625 -20.828125 C 9.765625 -20.429688 9.90625 -20.0625 10.1875 -19.71875 C 10.46875 -19.382812 10.945312 -19.023438 11.625 -18.640625 C 12.300781 -18.253906 12.894531 -17.941406 13.40625 -17.703125 C 13.914062 -17.472656 14.707031 -17.125 15.78125 -16.65625 C 17.644531 -15.863281 19.238281 -14.785156 20.5625 -13.421875 C 21.882812 -12.054688 22.546875 -10.507812 22.546875 -8.78125 C 22.546875 -7.125 22.242188 -5.675781 21.640625 -4.4375 C 21.046875 -3.207031 20.226562 -2.238281 19.1875 -1.53125 C 18.15625 -0.832031 17.007812 -0.316406 15.75 0.015625 C 14.488281 0.359375 13.125 0.53125 11.65625 0.53125 C 10.394531 0.53125 9.15625 0.398438 7.9375 0.140625 C 6.726562 -0.117188 5.710938 -0.441406 4.890625 -0.828125 C 4.078125 -1.210938 3.34375 -1.585938 2.6875 -1.953125 C 2.039062 -2.328125 1.566406 -2.644531 1.265625 -2.90625 L 0.8125 -3.296875 L 4.09375 -8.8125 C 4.375 -8.582031 4.757812 -8.285156 5.25 -7.921875 C 5.738281 -7.566406 6.609375 -7.082031 7.859375 -6.46875 C 9.109375 -5.863281 10.210938 -5.5625 11.171875 -5.5625 C 13.941406 -5.5625 15.328125 -6.507812 15.328125 -8.40625 C 15.328125 -8.800781 15.226562 -9.164062 15.03125 -9.5 C 14.832031 -9.84375 14.484375 -10.179688 13.984375 -10.515625 C 13.484375 -10.859375 13.039062 -11.128906 12.65625 -11.328125 C 12.269531 -11.523438 11.640625 -11.828125 10.765625 -12.234375 C 9.890625 -12.640625 9.238281 -12.945312 8.8125 -13.15625 C 7.0625 -14.019531 5.707031 -15.097656 4.75 -16.390625 C 3.800781 -17.691406 3.328125 -19.085938 3.328125 -20.578125 C 3.328125 -23.171875 4.28125 -25.289062 6.1875 -26.9375 C 8.101562 -28.582031 10.285156 -29.40625 12.734375 -29.40625 Z M 12.734375 -29.40625 "/></g></g></g><g fill="#000000" fill-opacity="1"><g transform="translate(244.56158, 276.961739)"><g><path d="M 3.796875 -2.125 C 1.804688 -3.90625 0.8125 -6.179688 0.8125 -8.953125 C 0.8125 -11.734375 1.847656 -14.015625 3.921875 -15.796875 C 5.992188 -17.585938 8.5625 -18.484375 11.625 -18.484375 C 14.632812 -18.484375 17.171875 -17.582031 19.234375 -15.78125 C 21.296875 -13.988281 22.328125 -11.710938 22.328125 -8.953125 C 22.328125 -6.203125 21.316406 -3.929688 19.296875 -2.140625 C 17.285156 -0.359375 14.726562 0.53125 11.625 0.53125 C 8.40625 0.53125 5.796875 -0.351562 3.796875 -2.125 Z M 8.59375 -12 C 7.789062 -11.207031 7.390625 -10.191406 7.390625 -8.953125 C 7.390625 -7.722656 7.769531 -6.71875 8.53125 -5.9375 C 9.300781 -5.15625 10.316406 -4.765625 11.578125 -4.765625 C 12.796875 -4.765625 13.796875 -5.160156 14.578125 -5.953125 C 15.359375 -6.742188 15.75 -7.742188 15.75 -8.953125 C 15.75 -10.191406 15.34375 -11.207031 14.53125 -12 C 13.726562 -12.789062 12.742188 -13.1875 11.578125 -13.1875 C 10.390625 -13.1875 9.394531 -12.789062 8.59375 -12 Z M 8.59375 -12 "/></g></g></g><g fill="#000000" fill-opacity="1"><g transform="translate(267.691347, 276.961739)"><g><path d="M 3.15625 -17.953125 L 3.15625 -24.640625 L 9.34375 -24.640625 L 9.34375 -17.953125 L 13.125 -17.953125 L 13.125 -13.234375 L 9.34375 -13.234375 L 9.34375 -7.53125 C 9.34375 -5.875 9.8125 -5.046875 10.75 -5.046875 C 10.976562 -5.046875 11.21875 -5.085938 11.46875 -5.171875 C 11.726562 -5.265625 11.929688 -5.359375 12.078125 -5.453125 L 12.28125 -5.59375 L 13.828125 -0.59375 C 12.492188 0.15625 10.976562 0.53125 9.28125 0.53125 C 8.113281 0.53125 7.109375 0.328125 6.265625 -0.078125 C 5.421875 -0.492188 4.78125 -1.046875 4.34375 -1.734375 C 3.914062 -2.421875 3.609375 -3.144531 3.421875 -3.90625 C 3.242188 -4.664062 3.15625 -5.472656 3.15625 -6.328125 L 3.15625 -13.234375 L 0.5625 -13.234375 L 0.5625 -17.953125 Z M 3.15625 -17.953125 "/></g></g></g><g fill="#000000" fill-opacity="1"><g transform="translate(281.513223, 276.961739)"><g><path d="M 3.796875 -2.125 C 1.804688 -3.90625 0.8125 -6.179688 0.8125 -8.953125 C 0.8125 -11.734375 1.847656 -14.015625 3.921875 -15.796875 C 5.992188 -17.585938 8.5625 -18.484375 11.625 -18.484375 C 14.632812 -18.484375 17.171875 -17.582031 19.234375 -15.78125 C 21.296875 -13.988281 22.328125 -11.710938 22.328125 -8.953125 C 22.328125 -6.203125 21.316406 -3.929688 19.296875 -2.140625 C 17.285156 -0.359375 14.726562 0.53125 11.625 0.53125 C 8.40625 0.53125 5.796875 -0.351562 3.796875 -2.125 Z M 8.59375 -12 C 7.789062 -11.207031 7.390625 -10.191406 7.390625 -8.953125 C 7.390625 -7.722656 7.769531 -6.71875 8.53125 -5.9375 C 9.300781 -5.15625 10.316406 -4.765625 11.578125 -4.765625 C 12.796875 -4.765625 13.796875 -5.160156 14.578125 -5.953125 C 15.359375 -6.742188 15.75 -7.742188 15.75 -8.953125 C 15.75 -10.191406 15.34375 -11.207031 14.53125 -12 C 13.726562 -12.789062 12.742188 -13.1875 11.578125 -13.1875 C 10.390625 -13.1875 9.394531 -12.789062 8.59375 -12 Z M 8.59375 -12 "/></g></g></g><g fill="#5271ff" fill-opacity="1"><g transform="translate(112.796866, 304.861797)"><g><path d="M 11.515625 0 L 11.5 -6.71875 L 8.203125 -1.1875 L 7.046875 -1.1875 L 3.765625 -6.578125 L 3.765625 0 L 1.328125 0 L 1.328125 -11.203125 L 3.46875 -11.203125 L 7.65625 -4.234375 L 11.796875 -11.203125 L 13.921875 -11.203125 L 13.953125 0 Z M 11.515625 0 "/></g></g></g><g fill="#5271ff" fill-opacity="1"><g transform="translate(136.07318, 304.861797)"><g><path d="M 10 -2.078125 L 10 0 L 1.328125 0 L 1.328125 -11.203125 L 9.796875 -11.203125 L 9.796875 -9.125 L 3.90625 -9.125 L 3.90625 -6.6875 L 9.109375 -6.6875 L 9.109375 -4.671875 L 3.90625 -4.671875 L 3.90625 -2.078125 Z M 10 -2.078125 "/></g></g></g><g fill="#5271ff" fill-opacity="1"><g transform="translate(154.80659, 304.861797)"><g><path d="M 6.6875 0.1875 C 5.539062 0.1875 4.503906 -0.0546875 3.578125 -0.546875 C 2.660156 -1.046875 1.9375 -1.734375 1.40625 -2.609375 C 0.882812 -3.492188 0.625 -4.488281 0.625 -5.59375 C 0.625 -6.707031 0.882812 -7.703125 1.40625 -8.578125 C 1.9375 -9.460938 2.660156 -10.148438 3.578125 -10.640625 C 4.503906 -11.140625 5.546875 -11.390625 6.703125 -11.390625 C 7.671875 -11.390625 8.546875 -11.21875 9.328125 -10.875 C 10.117188 -10.539062 10.78125 -10.050781 11.3125 -9.40625 L 9.640625 -7.875 C 8.890625 -8.75 7.953125 -9.1875 6.828125 -9.1875 C 6.140625 -9.1875 5.519531 -9.03125 4.96875 -8.71875 C 4.425781 -8.414062 4.003906 -7.992188 3.703125 -7.453125 C 3.398438 -6.910156 3.25 -6.289062 3.25 -5.59375 C 3.25 -4.90625 3.398438 -4.285156 3.703125 -3.734375 C 4.003906 -3.191406 4.425781 -2.769531 4.96875 -2.46875 C 5.519531 -2.164062 6.140625 -2.015625 6.828125 -2.015625 C 7.953125 -2.015625 8.890625 -2.457031 9.640625 -3.34375 L 11.3125 -1.8125 C 10.78125 -1.15625 10.117188 -0.65625 9.328125 -0.3125 C 8.535156 0.0195312 7.65625 0.1875 6.6875 0.1875 Z M 6.6875 0.1875 "/></g></g></g><g fill="#5271ff" fill-opacity="1"><g transform="translate(174.531757, 304.861797)"><g><path d="M 8.703125 -2.40625 L 3.5 -2.40625 L 2.515625 0 L -0.140625 0 L 4.84375 -11.203125 L 7.40625 -11.203125 L 12.421875 0 L 9.703125 0 Z M 7.890625 -4.375 L 6.109375 -8.65625 L 4.34375 -4.375 Z M 6.828125 -14.421875 L 9.515625 -14.421875 L 6.625 -12.109375 L 4.671875 -12.109375 Z M 6.828125 -14.421875 "/></g></g></g><g fill="#5271ff" fill-opacity="1"><g transform="translate(194.784794, 304.861797)"><g><path d="M 11.59375 -11.203125 L 11.59375 0 L 9.46875 0 L 3.890625 -6.796875 L 3.890625 0 L 1.328125 0 L 1.328125 -11.203125 L 3.46875 -11.203125 L 9.046875 -4.40625 L 9.046875 -11.203125 Z M 11.59375 -11.203125 "/></g></g></g><g fill="#5271ff" fill-opacity="1"><g transform="translate(215.709685, 304.861797)"><g><path d="M 1.328125 -11.203125 L 3.921875 -11.203125 L 3.921875 0 L 1.328125 0 Z M 1.328125 -11.203125 "/></g></g></g><g fill="#5271ff" fill-opacity="1"><g transform="translate(228.956404, 304.861797)"><g><path d="M 6.6875 0.1875 C 5.539062 0.1875 4.503906 -0.0546875 3.578125 -0.546875 C 2.660156 -1.046875 1.9375 -1.734375 1.40625 -2.609375 C 0.882812 -3.492188 0.625 -4.488281 0.625 -5.59375 C 0.625 -6.707031 0.882812 -7.703125 1.40625 -8.578125 C 1.9375 -9.460938 2.660156 -10.148438 3.578125 -10.640625 C 4.503906 -11.140625 5.546875 -11.390625 6.703125 -11.390625 C 7.671875 -11.390625 8.546875 -11.21875 9.328125 -10.875 C 10.117188 -10.539062 10.78125 -10.050781 11.3125 -9.40625 L 9.640625 -7.875 C 8.890625 -8.75 7.953125 -9.1875 6.828125 -9.1875 C 6.140625 -9.1875 5.519531 -9.03125 4.96875 -8.71875 C 4.425781 -8.414062 4.003906 -7.992188 3.703125 -7.453125 C 3.398438 -6.910156 3.25 -6.289062 3.25 -5.59375 C 3.25 -4.90625 3.398438 -4.285156 3.703125 -3.734375 C 4.003906 -3.191406 4.425781 -2.769531 4.96875 -2.46875 C 5.519531 -2.164062 6.140625 -2.015625 6.828125 -2.015625 C 7.953125 -2.015625 8.890625 -2.457031 9.640625 -3.34375 L 11.3125 -1.8125 C 10.78125 -1.15625 10.117188 -0.65625 9.328125 -0.3125 C 8.535156 0.0195312 7.65625 0.1875 6.6875 0.1875 Z M 6.6875 0.1875 "/></g></g></g><g fill="#5271ff" fill-opacity="1"><g transform="translate(248.681576, 304.861797)"><g><path d="M 6.75 0.1875 C 5.59375 0.1875 4.546875 -0.0625 3.609375 -0.5625 C 2.671875 -1.0625 1.9375 -1.75 1.40625 -2.625 C 0.882812 -3.507812 0.625 -4.5 0.625 -5.59375 C 0.625 -6.695312 0.882812 -7.6875 1.40625 -8.5625 C 1.9375 -9.445312 2.671875 -10.140625 3.609375 -10.640625 C 4.546875 -11.140625 5.59375 -11.390625 6.75 -11.390625 C 7.914062 -11.390625 8.960938 -11.140625 9.890625 -10.640625 C 10.816406 -10.140625 11.546875 -9.445312 12.078125 -8.5625 C 12.609375 -7.6875 12.875 -6.695312 12.875 -5.59375 C 12.875 -4.5 12.609375 -3.507812 12.078125 -2.625 C 11.546875 -1.75 10.816406 -1.0625 9.890625 -0.5625 C 8.960938 -0.0625 7.914062 0.1875 6.75 0.1875 Z M 6.75 -2.015625 C 7.414062 -2.015625 8.015625 -2.164062 8.546875 -2.46875 C 9.078125 -2.769531 9.492188 -3.191406 9.796875 -3.734375 C 10.097656 -4.285156 10.25 -4.90625 10.25 -5.59375 C 10.25 -6.289062 10.097656 -6.910156 9.796875 -7.453125 C 9.492188 -7.992188 9.078125 -8.414062 8.546875 -8.71875 C 8.015625 -9.03125 7.414062 -9.1875 6.75 -9.1875 C 6.09375 -9.1875 5.492188 -9.03125 4.953125 -8.71875 C 4.421875 -8.414062 4.003906 -7.992188 3.703125 -7.453125 C 3.398438 -6.910156 3.25 -6.289062 3.25 -5.59375 C 3.25 -4.90625 3.398438 -4.285156 3.703125 -3.734375 C 4.003906 -3.191406 4.421875 -2.769531 4.953125 -2.46875 C 5.492188 -2.164062 6.09375 -2.015625 6.75 -2.015625 Z M 6.75 -2.015625 "/></g></g></g></svg>