<svg xmlns="http://www.w3.org/2000/svg" xmlns:xlink="http://www.w3.org/1999/xlink" width="500" zoomAndPan="magnify" viewBox="0 0 375 374.999991" height="500" preserveAspectRatio="xMidYMid meet" version="1.0"><rect x="-37.5" width="450" fill="#ffffff" y="-37.499999" height="449.999989" fill-opacity="1"/><rect x="-37.5" width="450" fill="#000000" y="-37.499999" height="449.999989" fill-opacity="1"/><path fill="#ffffff" d="M 320.828125 103.667969 C 321.828125 103.667969 322.792969 103.480469 323.71875 103.097656 C 324.644531 102.714844 325.460938 102.171875 326.167969 101.464844 L 366.042969 61.589844 C 366.394531 61.242188 366.707031 60.859375 366.980469 60.445312 C 367.253906 60.035156 367.488281 59.601562 367.675781 59.144531 C 367.867188 58.683594 368.011719 58.214844 368.105469 57.726562 C 368.203125 57.242188 368.25 56.75 368.25 56.253906 C 368.25 55.761719 368.203125 55.269531 368.105469 54.785156 C 368.011719 54.296875 367.867188 53.824219 367.675781 53.367188 C 367.488281 52.910156 367.253906 52.476562 366.980469 52.0625 C 366.707031 51.652344 366.394531 51.269531 366.042969 50.921875 L 321.851562 6.730469 C 321.496094 6.394531 321.109375 6.09375 320.695312 5.832031 C 320.28125 5.566406 319.84375 5.34375 319.386719 5.164062 C 318.929688 4.984375 318.460938 4.847656 317.976562 4.753906 C 317.496094 4.664062 317.007812 4.617188 316.519531 4.617188 C 316.027344 4.617188 315.539062 4.664062 315.058594 4.753906 C 314.574219 4.847656 314.105469 4.984375 313.648438 5.164062 C 313.191406 5.34375 312.757812 5.566406 312.339844 5.832031 C 311.925781 6.09375 311.539062 6.394531 311.183594 6.730469 L 271.324219 46.605469 C 270.613281 47.3125 270.066406 48.128906 269.683594 49.054688 C 269.296875 49.980469 269.105469 50.945312 269.105469 51.945312 L 269.105469 92.996094 L 201.992188 160.113281 L 142.347656 100.453125 C 143.527344 97.398438 144.492188 94.273438 145.238281 91.082031 C 145.980469 87.894531 146.503906 84.664062 146.796875 81.402344 C 147.09375 78.140625 147.160156 74.871094 147.003906 71.601562 C 146.84375 68.328125 146.457031 65.082031 145.84375 61.863281 C 145.230469 58.644531 144.398438 55.484375 143.347656 52.382812 C 142.292969 49.28125 141.03125 46.265625 139.558594 43.339844 C 138.085938 40.410156 136.417969 37.601562 134.554688 34.90625 C 132.691406 32.214844 130.648438 29.660156 128.429688 27.253906 C 126.207031 24.84375 123.832031 22.597656 121.300781 20.519531 C 118.765625 18.441406 116.101562 16.550781 113.304688 14.84375 C 110.507812 13.136719 107.609375 11.632812 104.601562 10.328125 C 101.59375 9.027344 98.511719 7.9375 95.355469 7.066406 C 92.199219 6.191406 88.996094 5.542969 85.746094 5.113281 C 82.5 4.6875 79.234375 4.488281 75.960938 4.515625 C 72.683594 4.542969 69.425781 4.800781 66.183594 5.28125 C 62.945312 5.765625 59.753906 6.46875 56.609375 7.394531 C 56.296875 7.488281 55.992188 7.597656 55.695312 7.730469 C 55.394531 7.859375 55.105469 8.011719 54.828125 8.179688 C 54.550781 8.347656 54.28125 8.535156 54.027344 8.738281 C 53.773438 8.941406 53.535156 9.160156 53.308594 9.394531 C 53.082031 9.628906 52.871094 9.878906 52.675781 10.136719 C 52.480469 10.398438 52.304688 10.671875 52.148438 10.957031 C 51.988281 11.242188 51.847656 11.535156 51.726562 11.839844 C 51.605469 12.140625 51.507812 12.449219 51.425781 12.765625 C 51.34375 13.082031 51.285156 13.402344 51.246094 13.726562 C 51.207031 14.046875 51.1875 14.371094 51.191406 14.699219 C 51.191406 15.023438 51.214844 15.347656 51.261719 15.671875 C 51.304688 15.996094 51.371094 16.3125 51.457031 16.628906 C 51.542969 16.941406 51.648438 17.25 51.773438 17.550781 C 51.902344 17.851562 52.046875 18.140625 52.210938 18.421875 C 52.371094 18.703125 52.554688 18.976562 52.753906 19.234375 C 52.949219 19.492188 53.164062 19.734375 53.394531 19.964844 L 84.335938 50.921875 L 79.808594 78.238281 L 52.519531 82.765625 L 21.492188 51.886719 C 21.261719 51.65625 21.015625 51.441406 20.757812 51.242188 C 20.5 51.042969 20.230469 50.863281 19.949219 50.699219 C 19.667969 50.535156 19.375 50.390625 19.074219 50.265625 C 18.777344 50.140625 18.46875 50.03125 18.15625 49.945312 C 17.839844 49.859375 17.523438 49.792969 17.199219 49.75 C 16.878906 49.703125 16.554688 49.679688 16.226562 49.675781 C 15.902344 49.675781 15.578125 49.691406 15.253906 49.730469 C 14.929688 49.769531 14.609375 49.832031 14.296875 49.910156 C 13.980469 49.992188 13.671875 50.089844 13.367188 50.210938 C 13.066406 50.332031 12.773438 50.472656 12.488281 50.628906 C 12.203125 50.789062 11.929688 50.964844 11.667969 51.15625 C 11.40625 51.351562 11.15625 51.5625 10.921875 51.789062 C 10.6875 52.011719 10.46875 52.253906 10.265625 52.507812 C 10.0625 52.761719 9.875 53.027344 9.707031 53.304688 C 9.539062 53.585938 9.386719 53.871094 9.253906 54.171875 C 9.125 54.46875 9.011719 54.773438 8.917969 55.085938 C 7.992188 58.226562 7.285156 61.421875 6.800781 64.660156 C 6.320312 67.902344 6.0625 71.160156 6.035156 74.4375 C 6.003906 77.714844 6.203125 80.976562 6.628906 84.226562 C 7.054688 87.476562 7.703125 90.679688 8.578125 93.835938 C 9.449219 96.996094 10.535156 100.078125 11.839844 103.085938 C 13.140625 106.09375 14.644531 108.996094 16.351562 111.792969 C 18.058594 114.589844 19.953125 117.253906 22.03125 119.789062 C 24.109375 122.320312 26.355469 124.695312 28.761719 126.917969 C 31.171875 129.136719 33.726562 131.179688 36.421875 133.042969 C 39.113281 134.910156 41.925781 136.578125 44.851562 138.050781 C 47.78125 139.523438 50.796875 140.785156 53.898438 141.835938 C 57.003906 142.890625 60.164062 143.722656 63.382812 144.332031 C 66.601562 144.945312 69.847656 145.328125 73.121094 145.488281 C 76.394531 145.648438 79.664062 145.578125 82.925781 145.28125 C 86.1875 144.984375 89.417969 144.464844 92.605469 143.71875 C 95.796875 142.96875 98.921875 142.007812 101.976562 140.824219 L 124.070312 162.992188 L 107.574219 179.429688 C 107.226562 179.78125 106.910156 180.160156 106.636719 180.574219 C 106.359375 180.984375 106.125 181.421875 105.933594 181.878906 C 105.746094 182.339844 105.601562 182.8125 105.503906 183.296875 C 105.40625 183.785156 105.359375 184.277344 105.359375 184.773438 C 105.359375 185.269531 105.40625 185.757812 105.503906 186.246094 C 105.601562 186.734375 105.746094 187.207031 105.933594 187.664062 C 106.125 188.121094 106.359375 188.558594 106.636719 188.96875 C 106.910156 189.382812 107.226562 189.765625 107.574219 190.113281 L 109.871094 192.394531 C 110.300781 192.824219 110.6875 193.292969 111.023438 193.796875 C 111.363281 194.304688 111.648438 194.835938 111.882812 195.398438 C 112.117188 195.960938 112.292969 196.542969 112.414062 197.140625 C 112.53125 197.734375 112.59375 198.339844 112.59375 198.949219 C 112.59375 199.554688 112.535156 200.160156 112.417969 200.757812 C 112.300781 201.355469 112.125 201.933594 111.890625 202.496094 C 111.660156 203.058594 111.375 203.59375 111.035156 204.101562 C 110.699219 204.609375 110.316406 205.078125 109.886719 205.507812 C 109.457031 205.9375 108.988281 206.324219 108.480469 206.664062 C 107.976562 207.003906 107.441406 207.289062 106.878906 207.523438 C 106.316406 207.753906 105.738281 207.933594 105.140625 208.050781 C 104.542969 208.171875 103.941406 208.230469 103.332031 208.230469 C 102.722656 208.234375 102.117188 208.175781 101.519531 208.054688 C 100.925781 207.9375 100.34375 207.761719 99.78125 207.53125 C 99.21875 207.296875 98.683594 207.011719 98.175781 206.675781 C 97.671875 206.335938 97.203125 205.953125 96.769531 205.523438 L 94.460938 203.214844 C 93.753906 202.503906 92.9375 201.957031 92.011719 201.574219 C 91.085938 201.1875 90.121094 200.996094 89.117188 200.996094 C 88.117188 200.992188 87.152344 201.183594 86.226562 201.566406 C 85.300781 201.949219 84.484375 202.492188 83.777344 203.199219 L 23.800781 263.207031 C 22.398438 264.609375 21.066406 266.082031 19.808594 267.617188 C 18.546875 269.152344 17.367188 270.746094 16.265625 272.394531 C 15.164062 274.046875 14.144531 275.75 13.210938 277.5 C 12.273438 279.253906 11.425781 281.046875 10.667969 282.878906 C 9.910156 284.714844 9.242188 286.582031 8.667969 288.484375 C 8.089844 290.382812 7.609375 292.304688 7.222656 294.253906 C 6.835938 296.203125 6.546875 298.164062 6.351562 300.140625 C 6.160156 302.117188 6.0625 304.097656 6.0625 306.082031 C 6.0625 308.066406 6.160156 310.046875 6.355469 312.023438 C 6.550781 314 6.84375 315.960938 7.230469 317.910156 C 7.617188 319.855469 8.101562 321.78125 8.675781 323.679688 C 9.253906 325.578125 9.921875 327.445312 10.683594 329.28125 C 11.441406 331.113281 12.289062 332.90625 13.226562 334.660156 C 14.164062 336.410156 15.183594 338.109375 16.285156 339.761719 C 17.390625 341.410156 18.570312 343.003906 19.832031 344.539062 C 21.089844 346.074219 22.421875 347.542969 23.824219 348.949219 C 25.230469 350.351562 26.699219 351.683594 28.234375 352.941406 C 29.769531 354.203125 31.363281 355.382812 33.011719 356.488281 C 34.664062 357.589844 36.363281 358.609375 38.113281 359.546875 C 39.867188 360.484375 41.660156 361.332031 43.492188 362.089844 C 45.328125 362.851562 47.195312 363.519531 49.09375 364.097656 C 50.992188 364.671875 52.917969 365.15625 54.863281 365.542969 C 56.8125 365.929688 58.773438 366.222656 60.75 366.417969 C 62.726562 366.613281 64.707031 366.710938 66.691406 366.710938 C 68.675781 366.710938 70.65625 366.613281 72.632812 366.421875 C 74.609375 366.226562 76.570312 365.9375 78.519531 365.550781 C 80.46875 365.164062 82.390625 364.683594 84.289062 364.105469 C 86.191406 363.53125 88.058594 362.863281 89.894531 362.105469 C 91.726562 361.34375 93.519531 360.5 95.273438 359.5625 C 97.023438 358.628906 98.726562 357.609375 100.378906 356.507812 C 102.027344 355.40625 103.621094 354.226562 105.15625 352.964844 C 106.691406 351.707031 108.164062 350.375 109.566406 348.972656 L 169.558594 288.980469 C 169.910156 288.632812 170.222656 288.25 170.5 287.839844 C 170.777344 287.425781 171.007812 286.992188 171.199219 286.53125 C 171.390625 286.074219 171.535156 285.601562 171.628906 285.113281 C 171.726562 284.628906 171.777344 284.136719 171.777344 283.640625 C 171.777344 283.144531 171.726562 282.652344 171.628906 282.164062 C 171.535156 281.679688 171.390625 281.207031 171.199219 280.746094 C 171.007812 280.289062 170.777344 279.855469 170.5 279.441406 C 170.222656 279.027344 169.910156 278.648438 169.558594 278.296875 L 167.265625 276.003906 C 166.835938 275.574219 166.449219 275.105469 166.109375 274.597656 C 165.773438 274.09375 165.484375 273.558594 165.253906 272.996094 C 165.019531 272.433594 164.84375 271.851562 164.722656 271.253906 C 164.605469 270.65625 164.546875 270.054688 164.546875 269.445312 C 164.546875 268.835938 164.605469 268.234375 164.722656 267.636719 C 164.84375 267.039062 165.019531 266.457031 165.253906 265.894531 C 165.484375 265.332031 165.773438 264.800781 166.109375 264.292969 C 166.449219 263.785156 166.835938 263.320312 167.265625 262.886719 C 167.703125 262.46875 168.175781 262.09375 168.683594 261.765625 C 169.191406 261.4375 169.726562 261.160156 170.289062 260.933594 C 170.851562 260.707031 171.429688 260.535156 172.023438 260.421875 C 172.617188 260.304688 173.21875 260.246094 173.824219 260.246094 C 174.429688 260.246094 175.027344 260.304688 175.621094 260.421875 C 176.21875 260.535156 176.796875 260.707031 177.355469 260.933594 C 177.917969 261.160156 178.453125 261.4375 178.960938 261.765625 C 179.472656 262.09375 179.945312 262.46875 180.378906 262.886719 L 182.6875 265.183594 C 183.039062 265.53125 183.421875 265.84375 183.832031 266.117188 C 184.242188 266.390625 184.675781 266.625 185.132812 266.8125 C 185.589844 267 186.0625 267.144531 186.546875 267.238281 C 187.03125 267.335938 187.523438 267.382812 188.015625 267.382812 C 188.511719 267.382812 189 267.335938 189.484375 267.238281 C 189.972656 267.144531 190.441406 267 190.898438 266.8125 C 191.355469 266.625 191.789062 266.390625 192.203125 266.117188 C 192.613281 265.84375 192.992188 265.53125 193.34375 265.183594 L 209.78125 248.703125 L 231.875 270.8125 C 230.695312 273.867188 229.738281 276.992188 228.992188 280.179688 C 228.25 283.371094 227.734375 286.597656 227.441406 289.859375 C 227.148438 293.121094 227.082031 296.386719 227.242188 299.65625 C 227.402344 302.929688 227.789062 306.171875 228.402344 309.390625 C 229.015625 312.605469 229.851562 315.765625 230.902344 318.867188 C 231.957031 321.96875 233.21875 324.980469 234.691406 327.90625 C 236.164062 330.832031 237.832031 333.640625 239.699219 336.332031 C 241.5625 339.027344 243.601562 341.578125 245.824219 343.984375 C 248.042969 346.394531 250.417969 348.636719 252.949219 350.714844 C 255.480469 352.792969 258.144531 354.6875 260.9375 356.394531 C 263.734375 358.101562 266.632812 359.605469 269.636719 360.90625 C 272.644531 362.210938 275.722656 363.300781 278.878906 364.175781 C 282.035156 365.046875 285.238281 365.699219 288.484375 366.128906 C 291.730469 366.554688 294.992188 366.757812 298.265625 366.730469 C 301.542969 366.707031 304.800781 366.453125 308.039062 365.972656 C 311.277344 365.496094 314.46875 364.792969 317.613281 363.867188 C 317.925781 363.777344 318.230469 363.664062 318.527344 363.535156 C 318.828125 363.402344 319.113281 363.253906 319.394531 363.085938 C 319.671875 362.914062 319.9375 362.730469 320.195312 362.527344 C 320.449219 362.324219 320.6875 362.105469 320.914062 361.871094 C 321.140625 361.636719 321.351562 361.386719 321.546875 361.125 C 321.738281 360.863281 321.917969 360.589844 322.074219 360.304688 C 322.234375 360.023438 322.375 359.726562 322.496094 359.425781 C 322.617188 359.121094 322.714844 358.8125 322.796875 358.5 C 322.878906 358.183594 322.9375 357.863281 322.976562 357.539062 C 323.015625 357.214844 323.035156 356.890625 323.03125 356.566406 C 323.027344 356.238281 323.003906 355.914062 322.960938 355.59375 C 322.914062 355.269531 322.851562 354.953125 322.765625 354.636719 C 322.679688 354.324219 322.574219 354.015625 322.445312 353.714844 C 322.320312 353.414062 322.175781 353.121094 322.011719 352.839844 C 321.847656 352.558594 321.667969 352.289062 321.46875 352.03125 C 321.269531 351.773438 321.058594 351.527344 320.828125 351.296875 L 289.886719 320.34375 L 294.414062 293.027344 L 321.703125 288.5 L 352.65625 319.4375 C 352.886719 319.667969 353.128906 319.882812 353.386719 320.082031 C 353.648438 320.28125 353.917969 320.460938 354.199219 320.625 C 354.480469 320.789062 354.769531 320.933594 355.070312 321.058594 C 355.371094 321.183594 355.679688 321.292969 355.992188 321.378906 C 356.304688 321.464844 356.625 321.53125 356.945312 321.574219 C 357.269531 321.621094 357.59375 321.644531 357.917969 321.648438 C 358.246094 321.648438 358.570312 321.632812 358.894531 321.59375 C 359.214844 321.554688 359.535156 321.496094 359.851562 321.414062 C 360.167969 321.332031 360.476562 321.234375 360.777344 321.113281 C 361.082031 320.992188 361.375 320.851562 361.660156 320.695312 C 361.945312 320.535156 362.21875 320.359375 362.480469 320.167969 C 362.742188 319.972656 362.988281 319.761719 363.222656 319.539062 C 363.457031 319.3125 363.675781 319.070312 363.882812 318.816406 C 364.085938 318.5625 364.269531 318.296875 364.441406 318.019531 C 364.609375 317.738281 364.757812 317.453125 364.890625 317.152344 C 365.023438 316.855469 365.136719 316.550781 365.226562 316.238281 C 366.15625 313.097656 366.863281 309.902344 367.34375 306.664062 C 367.828125 303.421875 368.085938 300.164062 368.113281 296.886719 C 368.140625 293.609375 367.945312 290.347656 367.519531 287.097656 C 367.09375 283.847656 366.441406 280.644531 365.570312 277.488281 C 364.699219 274.328125 363.609375 271.246094 362.308594 268.238281 C 361.003906 265.230469 359.5 262.332031 357.792969 259.53125 C 356.085938 256.734375 354.195312 254.070312 352.117188 251.539062 C 350.039062 249.003906 347.792969 246.628906 345.382812 244.40625 C 342.972656 242.1875 340.421875 240.144531 337.726562 238.28125 C 335.03125 236.414062 332.222656 234.746094 329.292969 233.273438 C 326.367188 231.800781 323.351562 230.539062 320.246094 229.488281 C 317.144531 228.433594 313.984375 227.601562 310.765625 226.992188 C 307.542969 226.378906 304.296875 225.996094 301.027344 225.835938 C 297.753906 225.675781 294.484375 225.746094 291.222656 226.042969 C 287.957031 226.339844 284.730469 226.859375 281.539062 227.609375 C 278.347656 228.355469 275.226562 229.320312 272.167969 230.5 L 212.527344 170.84375 L 279.640625 103.726562 Z M 187.746094 249.457031 C 186.570312 248.671875 185.339844 247.988281 184.050781 247.410156 C 182.761719 246.835938 181.433594 246.371094 180.066406 246.019531 C 178.699219 245.671875 177.3125 245.4375 175.902344 245.324219 C 174.496094 245.207031 173.089844 245.214844 171.683594 245.335938 C 170.277344 245.460938 168.890625 245.707031 167.523438 246.066406 C 166.160156 246.425781 164.835938 246.898438 163.550781 247.484375 C 162.265625 248.070312 161.039062 248.761719 159.871094 249.554688 C 158.703125 250.351562 157.613281 251.238281 156.59375 252.21875 C 155.59375 253.222656 154.6875 254.304688 153.875 255.46875 C 153.0625 256.632812 152.355469 257.855469 151.757812 259.140625 C 151.15625 260.425781 150.671875 261.753906 150.304688 263.125 C 149.9375 264.492188 149.691406 265.886719 149.5625 267.296875 C 149.4375 268.710938 149.433594 270.125 149.554688 271.539062 C 149.675781 272.949219 149.917969 274.34375 150.28125 275.714844 C 150.640625 277.085938 151.121094 278.414062 151.714844 279.703125 C 152.308594 280.992188 153.011719 282.21875 153.816406 283.382812 L 98.898438 338.304688 C 97.953125 339.242188 96.972656 340.140625 95.949219 340.992188 C 94.929688 341.847656 93.871094 342.652344 92.777344 343.414062 C 91.6875 344.175781 90.5625 344.886719 89.40625 345.546875 C 88.25 346.210938 87.070312 346.820312 85.859375 347.378906 C 84.652344 347.9375 83.421875 348.441406 82.167969 348.890625 C 80.914062 349.34375 79.644531 349.738281 78.355469 350.074219 C 77.070312 350.414062 75.769531 350.695312 74.457031 350.921875 C 73.144531 351.144531 71.824219 351.3125 70.496094 351.421875 C 69.171875 351.527344 67.839844 351.578125 66.511719 351.570312 C 65.179688 351.5625 63.851562 351.496094 62.523438 351.371094 C 61.199219 351.25 59.882812 351.066406 58.570312 350.824219 C 57.261719 350.585938 55.964844 350.289062 54.683594 349.933594 C 53.398438 349.582031 52.132812 349.171875 50.886719 348.707031 C 49.636719 348.242188 48.414062 347.722656 47.210938 347.148438 C 46.007812 346.578125 44.835938 345.953125 43.6875 345.277344 C 42.539062 344.601562 41.425781 343.875 40.339844 343.101562 L 104.363281 279.066406 C 104.722656 278.71875 105.042969 278.339844 105.328125 277.925781 C 105.613281 277.515625 105.855469 277.078125 106.050781 276.617188 C 106.25 276.15625 106.402344 275.683594 106.503906 275.191406 C 106.605469 274.703125 106.660156 274.207031 106.664062 273.703125 C 106.667969 273.203125 106.625 272.707031 106.53125 272.214844 C 106.433594 271.722656 106.292969 271.246094 106.101562 270.78125 C 105.914062 270.316406 105.679688 269.878906 105.402344 269.460938 C 105.125 269.042969 104.808594 268.65625 104.453125 268.304688 C 104.101562 267.949219 103.714844 267.632812 103.296875 267.355469 C 102.878906 267.078125 102.441406 266.84375 101.976562 266.65625 C 101.511719 266.464844 101.035156 266.324219 100.542969 266.230469 C 100.050781 266.132812 99.554688 266.089844 99.054688 266.09375 C 98.550781 266.097656 98.058594 266.152344 97.566406 266.253906 C 97.078125 266.359375 96.601562 266.507812 96.140625 266.707031 C 95.679688 266.902344 95.246094 267.144531 94.832031 267.429688 C 94.417969 267.714844 94.039062 268.035156 93.691406 268.398438 L 29.65625 332.449219 C 28.875 331.367188 28.144531 330.25 27.464844 329.105469 C 26.785156 327.960938 26.15625 326.785156 25.578125 325.582031 C 25 324.382812 24.476562 323.15625 24.007812 321.90625 C 23.539062 320.660156 23.128906 319.394531 22.769531 318.109375 C 22.414062 316.824219 22.113281 315.527344 21.871094 314.214844 C 21.628906 312.90625 21.445312 311.585938 21.320312 310.257812 C 21.191406 308.929688 21.125 307.601562 21.117188 306.265625 C 21.109375 304.933594 21.160156 303.601562 21.269531 302.273438 C 21.378906 300.945312 21.546875 299.625 21.769531 298.308594 C 21.996094 296.996094 22.28125 295.695312 22.621094 294.40625 C 22.960938 293.117188 23.359375 291.84375 23.8125 290.589844 C 24.265625 289.335938 24.773438 288.105469 25.335938 286.898438 C 25.898438 285.6875 26.511719 284.507812 27.179688 283.351562 C 27.84375 282.195312 28.5625 281.074219 29.328125 279.980469 C 30.09375 278.890625 30.90625 277.835938 31.761719 276.816406 C 32.621094 275.796875 33.523438 274.816406 34.46875 273.875 L 89.390625 218.941406 C 90.554688 219.753906 91.777344 220.460938 93.066406 221.058594 C 94.351562 221.660156 95.683594 222.140625 97.054688 222.507812 C 98.425781 222.875 99.820312 223.121094 101.234375 223.242188 C 102.648438 223.367188 104.0625 223.367188 105.476562 223.242188 C 106.890625 223.117188 108.285156 222.871094 109.65625 222.503906 C 111.027344 222.136719 112.355469 221.652344 113.640625 221.054688 C 114.929688 220.453125 116.152344 219.746094 117.316406 218.933594 C 118.480469 218.117188 119.5625 217.207031 120.566406 216.207031 C 121.570312 215.203125 122.480469 214.117188 123.296875 212.957031 C 124.109375 211.792969 124.820312 210.566406 125.417969 209.28125 C 126.019531 207.996094 126.503906 206.667969 126.871094 205.296875 C 127.242188 203.921875 127.488281 202.53125 127.613281 201.117188 C 127.738281 199.703125 127.738281 198.289062 127.617188 196.875 C 127.492188 195.460938 127.25 194.066406 126.882812 192.695312 C 126.515625 191.324219 126.035156 189.992188 125.433594 188.707031 C 124.835938 187.417969 124.128906 186.191406 123.316406 185.027344 L 134.742188 173.605469 L 183.125 221.988281 L 199.214844 238.03125 Z M 273.84375 246.195312 C 274.917969 245.683594 276.003906 245.207031 277.105469 244.761719 C 278.207031 244.320312 279.320312 243.910156 280.449219 243.539062 C 281.578125 243.167969 282.71875 242.835938 283.867188 242.535156 C 285.015625 242.238281 286.175781 241.976562 287.34375 241.753906 C 288.507812 241.53125 289.679688 241.34375 290.859375 241.195312 C 292.039062 241.046875 293.21875 240.9375 294.40625 240.863281 C 295.589844 240.792969 296.777344 240.757812 297.964844 240.761719 C 299.152344 240.765625 300.339844 240.808594 301.523438 240.886719 C 302.710938 240.96875 303.890625 241.085938 305.070312 241.242188 C 306.246094 241.398438 307.417969 241.59375 308.582031 241.824219 C 309.746094 242.054688 310.902344 242.324219 312.050781 242.632812 C 313.199219 242.9375 314.335938 243.28125 315.460938 243.660156 C 316.585938 244.039062 317.699219 244.453125 318.800781 244.902344 C 319.898438 245.351562 320.980469 245.839844 322.050781 246.359375 C 323.117188 246.878906 324.167969 247.433594 325.199219 248.019531 C 326.230469 248.609375 327.242188 249.230469 328.234375 249.882812 C 329.230469 250.535156 330.199219 251.21875 331.148438 251.933594 C 332.09375 252.648438 333.019531 253.394531 333.921875 254.167969 C 334.820312 254.941406 335.695312 255.746094 336.542969 256.578125 C 337.394531 257.40625 338.214844 258.265625 339.007812 259.148438 C 339.800781 260.03125 340.566406 260.941406 341.300781 261.875 C 342.035156 262.804688 342.742188 263.761719 343.414062 264.738281 C 344.089844 265.71875 344.730469 266.714844 345.339844 267.734375 C 345.949219 268.753906 346.527344 269.792969 347.070312 270.851562 C 347.613281 271.90625 348.121094 272.980469 348.59375 274.066406 C 349.070312 275.15625 349.507812 276.261719 349.910156 277.378906 C 350.3125 278.496094 350.679688 279.625 351.011719 280.765625 C 351.339844 281.90625 351.632812 283.054688 351.890625 284.214844 C 352.148438 285.375 352.367188 286.542969 352.546875 287.71875 C 352.726562 288.890625 352.871094 290.070312 352.976562 291.253906 C 353.082031 292.433594 353.152344 293.621094 353.179688 294.808594 C 353.210938 295.996094 353.199219 297.183594 353.152344 298.371094 L 329.761719 275.007812 C 328.898438 274.144531 327.886719 273.527344 326.726562 273.152344 C 325.566406 272.78125 324.382812 272.695312 323.179688 272.894531 L 286.75 279.035156 C 285.972656 279.167969 285.234375 279.410156 284.535156 279.769531 C 283.835938 280.128906 283.210938 280.589844 282.652344 281.144531 C 282.097656 281.699219 281.640625 282.328125 281.28125 283.027344 C 280.917969 283.726562 280.675781 284.464844 280.546875 285.238281 L 274.402344 321.671875 C 274.203125 322.875 274.289062 324.058594 274.664062 325.21875 C 275.035156 326.378906 275.652344 327.390625 276.515625 328.25 L 299.863281 351.644531 C 296.046875 351.761719 292.257812 351.492188 288.492188 350.84375 C 284.730469 350.191406 281.070312 349.167969 277.511719 347.777344 C 273.957031 346.382812 270.578125 344.648438 267.371094 342.570312 C 264.167969 340.492188 261.203125 338.113281 258.480469 335.4375 C 257.476562 334.429688 256.515625 333.382812 255.59375 332.304688 C 254.667969 331.222656 253.789062 330.105469 252.953125 328.957031 C 252.113281 327.808594 251.320312 326.628906 250.574219 325.417969 C 249.828125 324.210938 249.128906 322.972656 248.476562 321.710938 C 247.824219 320.445312 247.222656 319.160156 246.667969 317.851562 C 246.117188 316.539062 245.613281 315.210938 245.164062 313.863281 C 244.714844 312.515625 244.316406 311.152344 243.96875 309.773438 C 243.621094 308.394531 243.328125 307.003906 243.089844 305.601562 C 242.851562 304.199219 242.664062 302.792969 242.535156 301.375 C 242.402344 299.960938 242.328125 298.542969 242.304688 297.121094 C 242.28125 295.699219 242.3125 294.277344 242.402344 292.859375 C 242.488281 291.441406 242.628906 290.027344 242.824219 288.621094 C 243.019531 287.210938 243.269531 285.8125 243.570312 284.421875 C 243.875 283.035156 244.230469 281.660156 244.640625 280.296875 C 245.046875 278.9375 245.507812 277.589844 246.019531 276.265625 C 246.53125 274.9375 247.09375 273.632812 247.707031 272.351562 C 248.039062 271.644531 248.253906 270.90625 248.359375 270.136719 C 248.460938 269.363281 248.445312 268.59375 248.3125 267.824219 C 248.175781 267.058594 247.929688 266.328125 247.566406 265.636719 C 247.207031 264.949219 246.75 264.328125 246.195312 263.777344 L 109.023438 126.546875 C 108.476562 125.992188 107.855469 125.535156 107.164062 125.171875 C 106.472656 124.808594 105.742188 124.5625 104.972656 124.425781 C 104.203125 124.292969 103.429688 124.277344 102.65625 124.378906 C 101.882812 124.484375 101.144531 124.703125 100.4375 125.039062 C 99.367188 125.550781 98.28125 126.027344 97.179688 126.472656 C 96.078125 126.914062 94.960938 127.320312 93.832031 127.691406 C 92.707031 128.0625 91.566406 128.398438 90.417969 128.695312 C 89.269531 128.996094 88.109375 129.257812 86.945312 129.480469 C 85.777344 129.703125 84.605469 129.890625 83.429688 130.039062 C 82.25 130.1875 81.066406 130.296875 79.882812 130.367188 C 78.699219 130.441406 77.511719 130.476562 76.324219 130.472656 C 75.136719 130.46875 73.949219 130.425781 72.765625 130.34375 C 71.582031 130.265625 70.398438 130.148438 69.222656 129.992188 C 68.046875 129.835938 66.875 129.640625 65.710938 129.410156 C 64.546875 129.179688 63.390625 128.910156 62.242188 128.605469 C 61.09375 128.300781 59.957031 127.957031 58.832031 127.578125 C 57.707031 127.199219 56.59375 126.785156 55.496094 126.335938 C 54.398438 125.886719 53.3125 125.398438 52.246094 124.878906 C 51.179688 124.359375 50.128906 123.808594 49.097656 123.21875 C 48.0625 122.632812 47.050781 122.011719 46.058594 121.359375 C 45.066406 120.707031 44.097656 120.023438 43.148438 119.308594 C 42.199219 118.59375 41.277344 117.851562 40.375 117.074219 C 39.476562 116.300781 38.601562 115.5 37.753906 114.667969 C 36.902344 113.839844 36.082031 112.980469 35.289062 112.097656 C 34.496094 111.214844 33.730469 110.308594 32.996094 109.375 C 32.257812 108.445312 31.554688 107.488281 30.878906 106.511719 C 30.207031 105.535156 29.5625 104.535156 28.953125 103.515625 C 28.34375 102.496094 27.769531 101.460938 27.226562 100.402344 C 26.679688 99.347656 26.171875 98.277344 25.699219 97.1875 C 25.222656 96.097656 24.785156 94.996094 24.382812 93.878906 C 23.980469 92.761719 23.613281 91.632812 23.28125 90.492188 C 22.949219 89.351562 22.65625 88.203125 22.398438 87.042969 C 22.140625 85.882812 21.921875 84.71875 21.742188 83.542969 C 21.558594 82.371094 21.414062 81.191406 21.308594 80.007812 C 21.203125 78.828125 21.132812 77.640625 21.105469 76.453125 C 21.074219 75.269531 21.082031 74.082031 21.128906 72.894531 L 44.523438 96.257812 C 45.382812 97.121094 46.394531 97.738281 47.554688 98.109375 C 48.714844 98.484375 49.898438 98.570312 51.101562 98.371094 L 87.535156 92.226562 C 88.308594 92.097656 89.042969 91.851562 89.742188 91.492188 C 90.4375 91.128906 91.066406 90.671875 91.621094 90.117188 C 92.175781 89.558594 92.632812 88.933594 92.988281 88.234375 C 93.347656 87.535156 93.59375 86.800781 93.722656 86.023438 L 99.878906 49.59375 C 100.078125 48.390625 99.992188 47.207031 99.621094 46.046875 C 99.246094 44.886719 98.628906 43.875 97.765625 43.011719 L 74.417969 19.621094 C 78.234375 19.511719 82.023438 19.789062 85.785156 20.445312 C 89.546875 21.101562 93.203125 22.128906 96.757812 23.523438 C 100.3125 24.917969 103.691406 26.65625 106.894531 28.730469 C 110.097656 30.808594 113.0625 33.183594 115.785156 35.859375 C 116.789062 36.867188 117.753906 37.910156 118.675781 38.992188 C 119.601562 40.070312 120.480469 41.1875 121.316406 42.335938 C 122.15625 43.484375 122.949219 44.664062 123.695312 45.875 C 124.441406 47.082031 125.140625 48.320312 125.792969 49.582031 C 126.445312 50.847656 127.050781 52.132812 127.601562 53.441406 C 128.15625 54.75 128.660156 56.082031 129.109375 57.429688 C 129.5625 58.777344 129.960938 60.140625 130.304688 61.519531 C 130.652344 62.898438 130.945312 64.289062 131.183594 65.691406 C 131.425781 67.089844 131.609375 68.5 131.742188 69.914062 C 131.875 71.332031 131.949219 72.75 131.972656 74.171875 C 131.996094 75.59375 131.964844 77.011719 131.878906 78.433594 C 131.789062 79.851562 131.648438 81.265625 131.453125 82.671875 C 131.257812 84.082031 131.011719 85.480469 130.707031 86.871094 C 130.40625 88.257812 130.050781 89.632812 129.640625 90.996094 C 129.234375 92.359375 128.773438 93.703125 128.261719 95.027344 C 127.75 96.355469 127.1875 97.660156 126.578125 98.945312 C 126.246094 99.648438 126.027344 100.386719 125.921875 101.160156 C 125.820312 101.933594 125.835938 102.703125 125.972656 103.46875 C 126.105469 104.238281 126.355469 104.964844 126.714844 105.65625 C 127.078125 106.347656 127.53125 106.964844 128.085938 107.515625 L 265.289062 244.71875 C 265.839844 245.265625 266.457031 245.71875 267.148438 246.078125 C 267.839844 246.433594 268.566406 246.679688 269.332031 246.8125 C 270.097656 246.945312 270.867188 246.957031 271.636719 246.851562 C 272.40625 246.746094 273.144531 246.527344 273.84375 246.195312 Z M 284.199219 55.070312 L 316.511719 22.742188 L 350.03125 56.261719 L 317.703125 88.574219 L 284.199219 88.574219 Z M 284.199219 55.070312 " fill-opacity="1" fill-rule="nonzero"/></svg>