<svg xmlns="http://www.w3.org/2000/svg" xmlns:xlink="http://www.w3.org/1999/xlink" width="500" zoomAndPan="magnify" viewBox="0 0 375 374.999991" height="500" preserveAspectRatio="xMidYMid meet" version="1.0"><defs><g/><clipPath id="bd4326f471"><path d="M 105.527344 65.742188 L 269.460938 65.742188 L 269.460938 229.675781 L 105.527344 229.675781 Z M 105.527344 65.742188 " clip-rule="nonzero"/></clipPath><clipPath id="d0ad328783"><path d="M 187.496094 65.742188 C 142.226562 65.742188 105.527344 102.441406 105.527344 147.710938 C 105.527344 192.980469 142.226562 229.675781 187.496094 229.675781 C 232.765625 229.675781 269.460938 192.980469 269.460938 147.710938 C 269.460938 102.441406 232.765625 65.742188 187.496094 65.742188 Z M 187.496094 65.742188 " clip-rule="nonzero"/></clipPath></defs><rect x="-37.5" width="450" fill="#ffffff" y="-37.499999" height="449.999989" fill-opacity="1"/><rect x="-37.5" width="450" fill="#000000" y="-37.499999" height="449.999989" fill-opacity="1"/><g clip-path="url(#bd4326f471)"><g clip-path="url(#d0ad328783)"><path stroke-linecap="butt" transform="matrix(0.75, 0, 0, 0.75, 105.527935, 65.743361)" fill="none" stroke-linejoin="miter" d="M 109.290878 -0.00156504 C 48.931503 -0.00156504 -0.00078856 48.930727 -0.00078856 109.290102 C -0.00078856 169.649477 48.931503 218.57656 109.290878 218.57656 C 169.650253 218.57656 218.577337 169.649477 218.577337 109.290102 C 218.577337 48.930727 169.650253 -0.00156504 109.290878 -0.00156504 Z M 109.290878 -0.00156504 " stroke="#5271ff" stroke-width="16" stroke-opacity="1" stroke-miterlimit="4"/></g></g><path fill="#ffffff" d="M 226.332031 123.816406 C 226.933594 123.816406 227.449219 123.605469 227.875 123.179688 L 239.390625 111.660156 C 239.597656 111.457031 239.753906 111.21875 239.863281 110.953125 C 239.976562 110.6875 240.03125 110.40625 240.03125 110.117188 C 240.03125 109.828125 239.976562 109.550781 239.863281 109.285156 C 239.753906 109.019531 239.597656 108.78125 239.390625 108.578125 L 226.628906 95.8125 C 226.417969 95.617188 226.179688 95.464844 225.914062 95.359375 C 225.648438 95.253906 225.371094 95.203125 225.085938 95.203125 C 224.800781 95.203125 224.523438 95.253906 224.257812 95.359375 C 223.992188 95.464844 223.753906 95.617188 223.542969 95.8125 L 212.03125 107.332031 C 211.605469 107.757812 211.390625 108.269531 211.390625 108.875 L 211.390625 120.734375 L 192.003906 140.121094 L 174.773438 122.886719 C 175.113281 122.003906 175.390625 121.101562 175.609375 120.179688 C 175.824219 119.257812 175.972656 118.324219 176.058594 117.382812 C 176.144531 116.441406 176.164062 115.496094 176.117188 114.550781 C 176.070312 113.605469 175.960938 112.667969 175.78125 111.738281 C 175.605469 110.808594 175.367188 109.894531 175.0625 109 C 174.757812 108.105469 174.394531 107.234375 173.96875 106.386719 C 173.542969 105.542969 173.058594 104.730469 172.523438 103.953125 C 171.984375 103.175781 171.394531 102.4375 170.753906 101.742188 C 170.109375 101.042969 169.425781 100.398438 168.691406 99.796875 C 167.960938 99.195312 167.191406 98.648438 166.382812 98.15625 C 165.574219 97.664062 164.738281 97.226562 163.871094 96.851562 C 163 96.476562 162.109375 96.160156 161.199219 95.910156 C 160.285156 95.65625 159.359375 95.46875 158.421875 95.347656 C 157.484375 95.222656 156.542969 95.164062 155.59375 95.171875 C 154.648438 95.179688 153.707031 95.253906 152.773438 95.394531 C 151.835938 95.535156 150.914062 95.738281 150.007812 96.003906 C 149.824219 96.058594 149.652344 96.132812 149.492188 96.230469 C 149.328125 96.328125 149.183594 96.445312 149.050781 96.582031 C 148.921875 96.71875 148.808594 96.867188 148.714844 97.035156 C 148.625 97.199219 148.554688 97.371094 148.507812 97.554688 C 148.460938 97.738281 148.4375 97.925781 148.441406 98.113281 C 148.441406 98.304688 148.46875 98.488281 148.519531 98.671875 C 148.566406 98.855469 148.640625 99.027344 148.734375 99.191406 C 148.828125 99.355469 148.945312 99.503906 149.078125 99.636719 L 158.015625 108.578125 L 156.707031 116.46875 L 148.824219 117.777344 L 139.859375 108.855469 C 139.726562 108.722656 139.578125 108.609375 139.414062 108.515625 C 139.253906 108.417969 139.078125 108.347656 138.898438 108.296875 C 138.714844 108.246094 138.53125 108.21875 138.339844 108.21875 C 138.152344 108.21875 137.964844 108.238281 137.78125 108.285156 C 137.597656 108.332031 137.425781 108.402344 137.261719 108.492188 C 137.09375 108.585938 136.945312 108.695312 136.808594 108.828125 C 136.671875 108.960938 136.554688 109.105469 136.457031 109.265625 C 136.359375 109.429688 136.28125 109.601562 136.230469 109.78125 C 135.960938 110.6875 135.757812 111.609375 135.617188 112.546875 C 135.476562 113.484375 135.402344 114.425781 135.394531 115.371094 C 135.386719 116.316406 135.445312 117.261719 135.566406 118.199219 C 135.691406 119.136719 135.878906 120.0625 136.128906 120.976562 C 136.382812 121.886719 136.695312 122.777344 137.074219 123.648438 C 137.449219 124.515625 137.882812 125.355469 138.375 126.160156 C 138.871094 126.96875 139.417969 127.738281 140.015625 128.472656 C 140.617188 129.203125 141.265625 129.890625 141.960938 130.53125 C 142.65625 131.171875 143.394531 131.761719 144.171875 132.300781 C 144.953125 132.839844 145.765625 133.320312 146.609375 133.746094 C 147.457031 134.171875 148.328125 134.539062 149.222656 134.839844 C 150.121094 135.144531 151.03125 135.386719 151.960938 135.5625 C 152.890625 135.738281 153.832031 135.851562 154.777344 135.894531 C 155.722656 135.941406 156.664062 135.921875 157.609375 135.835938 C 158.550781 135.75 159.484375 135.601562 160.40625 135.382812 C 161.324219 135.167969 162.226562 134.890625 163.109375 134.546875 L 169.492188 140.953125 L 164.730469 145.699219 C 164.523438 145.90625 164.367188 146.140625 164.253906 146.410156 C 164.144531 146.675781 164.089844 146.953125 164.089844 147.242188 C 164.089844 147.535156 164.144531 147.8125 164.253906 148.078125 C 164.367188 148.347656 164.523438 148.582031 164.730469 148.785156 L 165.390625 149.445312 C 165.644531 149.695312 165.835938 149.984375 165.972656 150.3125 C 166.109375 150.640625 166.175781 150.984375 166.179688 151.339844 C 166.179688 151.695312 166.109375 152.035156 165.976562 152.363281 C 165.839844 152.691406 165.648438 152.980469 165.394531 153.234375 C 165.144531 153.484375 164.855469 153.679688 164.527344 153.816406 C 164.199219 153.953125 163.859375 154.019531 163.503906 154.019531 C 163.148438 154.019531 162.804688 153.953125 162.476562 153.816406 C 162.148438 153.683594 161.859375 153.488281 161.605469 153.238281 L 160.941406 152.570312 C 160.515625 152.144531 160 151.929688 159.398438 151.929688 C 158.792969 151.929688 158.28125 152.140625 157.851562 152.566406 L 140.527344 169.902344 C 140.121094 170.304688 139.738281 170.730469 139.375 171.175781 C 139.011719 171.617188 138.671875 172.078125 138.351562 172.554688 C 138.035156 173.03125 137.738281 173.523438 137.46875 174.03125 C 137.199219 174.535156 136.953125 175.054688 136.734375 175.585938 C 136.515625 176.113281 136.324219 176.652344 136.15625 177.203125 C 135.992188 177.75 135.851562 178.308594 135.738281 178.871094 C 135.628906 179.433594 135.542969 180 135.488281 180.570312 C 135.433594 181.140625 135.402344 181.714844 135.402344 182.285156 C 135.40625 182.859375 135.433594 183.433594 135.488281 184.003906 C 135.546875 184.574219 135.628906 185.140625 135.742188 185.703125 C 135.855469 186.265625 135.992188 186.820312 136.160156 187.371094 C 136.328125 187.917969 136.519531 188.457031 136.738281 188.988281 C 136.957031 189.519531 137.203125 190.035156 137.472656 190.542969 C 137.746094 191.046875 138.039062 191.539062 138.359375 192.015625 C 138.675781 192.492188 139.015625 192.953125 139.382812 193.394531 C 139.746094 193.839844 140.128906 194.265625 140.535156 194.667969 C 140.941406 195.074219 141.367188 195.460938 141.808594 195.824219 C 142.253906 196.1875 142.710938 196.527344 143.1875 196.847656 C 143.667969 197.167969 144.15625 197.460938 144.664062 197.730469 C 145.167969 198 145.6875 198.246094 146.214844 198.464844 C 146.746094 198.6875 147.285156 198.878906 147.835938 199.046875 C 148.382812 199.210938 148.9375 199.351562 149.5 199.464844 C 150.0625 199.574219 150.632812 199.660156 151.203125 199.714844 C 151.773438 199.773438 152.34375 199.800781 152.917969 199.800781 C 153.492188 199.800781 154.0625 199.773438 154.636719 199.71875 C 155.207031 199.660156 155.773438 199.578125 156.335938 199.464844 C 156.898438 199.355469 157.453125 199.214844 158.003906 199.046875 C 158.550781 198.882812 159.089844 198.6875 159.621094 198.46875 C 160.152344 198.25 160.667969 198.007812 161.175781 197.734375 C 161.679688 197.464844 162.171875 197.171875 162.648438 196.851562 C 163.125 196.535156 163.585938 196.195312 164.03125 195.832031 C 164.472656 195.464844 164.898438 195.082031 165.304688 194.675781 L 182.632812 177.347656 C 182.839844 177.144531 182.996094 176.90625 183.109375 176.640625 C 183.21875 176.371094 183.273438 176.09375 183.273438 175.804688 C 183.273438 175.515625 183.21875 175.234375 183.109375 174.96875 C 182.996094 174.699219 182.839844 174.464844 182.632812 174.261719 L 181.972656 173.597656 C 181.71875 173.347656 181.527344 173.058594 181.390625 172.730469 C 181.253906 172.402344 181.1875 172.058594 181.1875 171.703125 C 181.1875 171.347656 181.253906 171.007812 181.390625 170.679688 C 181.527344 170.351562 181.71875 170.058594 181.972656 169.808594 C 182.226562 169.566406 182.515625 169.375 182.84375 169.246094 C 183.171875 169.113281 183.511719 169.046875 183.867188 169.046875 C 184.21875 169.046875 184.558594 169.113281 184.886719 169.246094 C 185.214844 169.375 185.503906 169.566406 185.757812 169.808594 L 186.425781 170.472656 C 186.632812 170.675781 186.867188 170.832031 187.132812 170.941406 C 187.398438 171.054688 187.675781 171.109375 187.964844 171.109375 C 188.253906 171.109375 188.53125 171.054688 188.796875 170.941406 C 189.066406 170.832031 189.300781 170.675781 189.503906 170.472656 L 194.253906 165.710938 L 200.632812 172.097656 C 200.292969 172.980469 200.015625 173.882812 199.804688 174.804688 C 199.589844 175.726562 199.4375 176.65625 199.355469 177.601562 C 199.269531 178.542969 199.25 179.484375 199.296875 180.429688 C 199.34375 181.375 199.457031 182.3125 199.632812 183.242188 C 199.808594 184.171875 200.050781 185.085938 200.355469 185.980469 C 200.660156 186.875 201.023438 187.746094 201.449219 188.589844 C 201.875 189.4375 202.355469 190.246094 202.894531 191.027344 C 203.433594 191.804688 204.023438 192.539062 204.664062 193.234375 C 205.304688 193.933594 205.992188 194.578125 206.722656 195.179688 C 207.453125 195.78125 208.222656 196.328125 209.03125 196.820312 C 209.839844 197.3125 210.675781 197.746094 211.542969 198.125 C 212.410156 198.5 213.300781 198.816406 214.214844 199.066406 C 215.125 199.320312 216.050781 199.507812 216.988281 199.632812 C 217.925781 199.757812 218.867188 199.8125 219.8125 199.808594 C 220.761719 199.800781 221.699219 199.726562 222.636719 199.585938 C 223.574219 199.449219 224.496094 199.246094 225.402344 198.980469 C 225.582031 198.925781 225.753906 198.851562 225.917969 198.753906 C 226.078125 198.65625 226.226562 198.539062 226.355469 198.402344 C 226.488281 198.265625 226.597656 198.117188 226.691406 197.949219 C 226.785156 197.785156 226.851562 197.613281 226.898438 197.429688 C 226.945312 197.246094 226.96875 197.058594 226.96875 196.871094 C 226.964844 196.679688 226.941406 196.496094 226.890625 196.3125 C 226.839844 196.128906 226.769531 195.957031 226.671875 195.792969 C 226.578125 195.628906 226.464844 195.480469 226.332031 195.347656 L 217.394531 186.40625 L 218.703125 178.515625 L 226.582031 177.207031 L 235.523438 186.144531 C 235.660156 186.277344 235.808594 186.394531 235.96875 186.488281 C 236.132812 186.582031 236.308594 186.65625 236.488281 186.707031 C 236.671875 186.753906 236.855469 186.78125 237.046875 186.78125 C 237.234375 186.785156 237.421875 186.761719 237.605469 186.714844 C 237.785156 186.667969 237.960938 186.601562 238.125 186.507812 C 238.292969 186.417969 238.441406 186.304688 238.578125 186.171875 C 238.714844 186.042969 238.832031 185.894531 238.929688 185.734375 C 239.027344 185.574219 239.101562 185.402344 239.15625 185.21875 C 239.425781 184.3125 239.628906 183.390625 239.769531 182.453125 C 239.90625 181.519531 239.980469 180.578125 239.992188 179.628906 C 240 178.683594 239.941406 177.742188 239.820312 176.804688 C 239.695312 175.863281 239.507812 174.9375 239.253906 174.027344 C 239.003906 173.113281 238.691406 172.222656 238.3125 171.355469 C 237.9375 170.488281 237.503906 169.648438 237.007812 168.839844 C 236.515625 168.03125 235.96875 167.261719 235.367188 166.53125 C 234.769531 165.796875 234.121094 165.113281 233.425781 164.46875 C 232.726562 163.828125 231.992188 163.238281 231.210938 162.699219 C 230.433594 162.160156 229.621094 161.679688 228.777344 161.253906 C 227.929688 160.828125 227.058594 160.464844 226.164062 160.160156 C 225.265625 159.855469 224.355469 159.617188 223.421875 159.441406 C 222.492188 159.261719 221.554688 159.152344 220.609375 159.105469 C 219.664062 159.058594 218.722656 159.078125 217.777344 159.164062 C 216.835938 159.25 215.902344 159.402344 214.980469 159.617188 C 214.058594 159.832031 213.15625 160.113281 212.273438 160.453125 L 195.046875 143.21875 L 214.433594 123.832031 Z M 187.886719 165.929688 C 187.203125 165.472656 186.464844 165.140625 185.667969 164.9375 C 184.871094 164.734375 184.066406 164.667969 183.246094 164.738281 C 182.429688 164.8125 181.644531 165.019531 180.898438 165.359375 C 180.148438 165.699219 179.480469 166.15625 178.890625 166.726562 C 178.597656 167.015625 178.335938 167.332031 178.101562 167.667969 C 177.867188 168 177.664062 168.355469 177.492188 168.726562 C 177.316406 169.097656 177.179688 169.480469 177.070312 169.878906 C 176.964844 170.273438 176.894531 170.675781 176.859375 171.082031 C 176.820312 171.492188 176.820312 171.898438 176.855469 172.308594 C 176.890625 172.714844 176.960938 173.117188 177.0625 173.515625 C 177.167969 173.910156 177.308594 174.292969 177.480469 174.667969 C 177.652344 175.039062 177.851562 175.394531 178.085938 175.730469 L 162.222656 191.59375 C 161.675781 192.136719 161.085938 192.628906 160.453125 193.070312 C 159.820312 193.511719 159.15625 193.894531 158.457031 194.214844 C 157.757812 194.539062 157.035156 194.800781 156.289062 194.996094 C 155.542969 195.191406 154.785156 195.320312 154.019531 195.382812 C 153.25 195.445312 152.480469 195.441406 151.714844 195.371094 C 150.945312 195.296875 150.191406 195.160156 149.449219 194.953125 C 148.707031 194.75 147.988281 194.480469 147.289062 194.148438 C 146.59375 193.820312 145.933594 193.429688 145.304688 192.980469 L 163.800781 174.484375 C 164.011719 174.28125 164.171875 174.042969 164.289062 173.773438 C 164.402344 173.507812 164.460938 173.226562 164.464844 172.933594 C 164.46875 172.640625 164.414062 172.359375 164.304688 172.089844 C 164.191406 171.820312 164.035156 171.582031 163.828125 171.375 C 163.621094 171.167969 163.382812 171.007812 163.109375 170.898438 C 162.839844 170.785156 162.558594 170.734375 162.265625 170.734375 C 161.972656 170.738281 161.695312 170.796875 161.425781 170.910156 C 161.15625 171.027344 160.921875 171.191406 160.71875 171.402344 L 142.21875 189.902344 C 141.769531 189.277344 141.375 188.617188 141.042969 187.921875 C 140.707031 187.222656 140.4375 186.503906 140.230469 185.761719 C 140.023438 185.015625 139.882812 184.261719 139.8125 183.492188 C 139.738281 182.726562 139.734375 181.957031 139.796875 181.1875 C 139.859375 180.417969 139.992188 179.660156 140.1875 178.914062 C 140.386719 178.167969 140.644531 177.445312 140.972656 176.746094 C 141.296875 176.042969 141.679688 175.378906 142.125 174.746094 C 142.566406 174.117188 143.0625 173.527344 143.609375 172.984375 L 159.476562 157.113281 C 159.8125 157.347656 160.164062 157.554688 160.539062 157.726562 C 160.910156 157.898438 161.292969 158.039062 161.6875 158.144531 C 162.085938 158.25 162.488281 158.320312 162.894531 158.355469 C 163.304688 158.394531 163.714844 158.394531 164.121094 158.355469 C 164.53125 158.320312 164.933594 158.25 165.328125 158.144531 C 165.726562 158.039062 166.109375 157.898438 166.480469 157.722656 C 166.851562 157.550781 167.207031 157.347656 167.542969 157.113281 C 167.878906 156.875 168.191406 156.613281 168.480469 156.324219 C 168.773438 156.035156 169.035156 155.722656 169.269531 155.386719 C 169.503906 155.050781 169.710938 154.695312 169.882812 154.324219 C 170.054688 153.953125 170.195312 153.566406 170.304688 153.171875 C 170.410156 152.777344 170.480469 152.375 170.515625 151.964844 C 170.550781 151.558594 170.554688 151.148438 170.515625 150.738281 C 170.480469 150.332031 170.410156 149.929688 170.304688 149.53125 C 170.199219 149.136719 170.058594 148.75 169.886719 148.378906 C 169.714844 148.007812 169.511719 147.652344 169.277344 147.316406 L 172.574219 144.015625 L 186.554688 157.996094 L 191.199219 162.628906 Z M 212.757812 164.988281 C 213.378906 164.691406 214.015625 164.433594 214.667969 164.21875 C 215.320312 164.003906 215.984375 163.832031 216.65625 163.703125 C 217.332031 163.574219 218.011719 163.488281 218.699219 163.445312 C 219.382812 163.40625 220.070312 163.40625 220.753906 163.453125 C 221.441406 163.5 222.121094 163.589844 222.792969 163.726562 C 223.46875 163.859375 224.128906 164.035156 224.78125 164.253906 C 225.433594 164.472656 226.066406 164.734375 226.683594 165.035156 C 227.300781 165.335938 227.898438 165.675781 228.472656 166.050781 C 229.042969 166.429688 229.59375 166.84375 230.113281 167.289062 C 230.632812 167.738281 231.125 168.21875 231.582031 168.730469 C 232.042969 169.238281 232.464844 169.777344 232.855469 170.34375 C 233.246094 170.910156 233.597656 171.5 233.910156 172.109375 C 234.226562 172.71875 234.5 173.347656 234.730469 173.996094 C 234.964844 174.640625 235.15625 175.300781 235.304688 175.96875 C 235.453125 176.640625 235.558594 177.320312 235.617188 178.003906 C 235.679688 178.6875 235.695312 179.371094 235.667969 180.058594 L 228.910156 173.308594 C 228.664062 173.0625 228.371094 172.882812 228.035156 172.773438 C 227.699219 172.667969 227.359375 172.640625 227.011719 172.699219 L 216.488281 174.472656 C 216.027344 174.550781 215.632812 174.753906 215.304688 175.082031 C 214.972656 175.414062 214.769531 175.804688 214.695312 176.265625 L 212.921875 186.789062 C 212.863281 187.136719 212.886719 187.480469 212.996094 187.816406 C 213.101562 188.148438 213.28125 188.441406 213.53125 188.691406 L 220.273438 195.449219 C 218.046875 195.515625 215.894531 195.144531 213.820312 194.332031 C 211.742188 193.519531 209.910156 192.328125 208.320312 190.765625 C 207.742188 190.183594 207.207031 189.558594 206.722656 188.894531 C 206.238281 188.230469 205.808594 187.53125 205.429688 186.800781 C 205.054688 186.070312 204.734375 185.316406 204.472656 184.535156 C 204.214844 183.753906 204.011719 182.957031 203.875 182.148438 C 203.734375 181.335938 203.660156 180.519531 203.648438 179.699219 C 203.636719 178.875 203.683594 178.058594 203.796875 177.242188 C 203.910156 176.425781 204.085938 175.625 204.324219 174.839844 C 204.558594 174.050781 204.855469 173.285156 205.207031 172.542969 C 205.40625 172.125 205.464844 171.691406 205.382812 171.234375 C 205.304688 170.78125 205.097656 170.390625 204.773438 170.066406 L 165.148438 130.425781 C 164.820312 130.097656 164.429688 129.890625 163.976562 129.8125 C 163.519531 129.730469 163.085938 129.789062 162.667969 129.988281 C 162.046875 130.285156 161.410156 130.539062 160.757812 130.753906 C 160.105469 130.96875 159.441406 131.140625 158.769531 131.269531 C 158.09375 131.402344 157.414062 131.484375 156.730469 131.527344 C 156.042969 131.570312 155.359375 131.566406 154.671875 131.519531 C 153.988281 131.476562 153.308594 131.386719 152.632812 131.25 C 151.960938 131.117188 151.296875 130.941406 150.648438 130.722656 C 149.996094 130.503906 149.363281 130.242188 148.746094 129.941406 C 148.128906 129.640625 147.53125 129.304688 146.957031 128.925781 C 146.382812 128.546875 145.835938 128.136719 145.316406 127.6875 C 144.796875 127.242188 144.304688 126.761719 143.847656 126.25 C 143.386719 125.738281 142.964844 125.203125 142.574219 124.636719 C 142.183594 124.070312 141.832031 123.484375 141.515625 122.871094 C 141.203125 122.261719 140.929688 121.632812 140.695312 120.988281 C 140.464844 120.339844 140.273438 119.683594 140.125 119.011719 C 139.976562 118.34375 139.871094 117.664062 139.808594 116.980469 C 139.746094 116.296875 139.730469 115.613281 139.757812 114.925781 L 146.515625 121.675781 C 146.761719 121.921875 147.054688 122.101562 147.390625 122.210938 C 147.726562 122.316406 148.066406 122.34375 148.414062 122.285156 L 158.9375 120.511719 C 159.398438 120.433594 159.789062 120.230469 160.121094 119.898438 C 160.449219 119.570312 160.648438 119.175781 160.726562 118.71875 L 162.503906 108.195312 C 162.5625 107.847656 162.539062 107.503906 162.429688 107.167969 C 162.324219 106.835938 162.144531 106.542969 161.894531 106.292969 L 155.152344 99.535156 C 157.378906 99.472656 159.527344 99.847656 161.601562 100.664062 C 163.679688 101.476562 165.511719 102.664062 167.101562 104.226562 C 167.679688 104.808594 168.214844 105.433594 168.699219 106.097656 C 169.183594 106.761719 169.613281 107.460938 169.992188 108.191406 C 170.367188 108.921875 170.6875 109.679688 170.949219 110.457031 C 171.210938 111.238281 171.410156 112.035156 171.546875 112.84375 C 171.6875 113.65625 171.761719 114.472656 171.777344 115.292969 C 171.789062 116.117188 171.738281 116.933594 171.625 117.75 C 171.511719 118.566406 171.339844 119.367188 171.101562 120.15625 C 170.867188 120.941406 170.570312 121.707031 170.21875 122.449219 C 170.019531 122.867188 169.960938 123.304688 170.042969 123.757812 C 170.121094 124.210938 170.324219 124.601562 170.652344 124.925781 L 210.285156 164.558594 C 210.613281 164.886719 211.003906 165.085938 211.457031 165.164062 C 211.910156 165.242188 212.34375 165.183594 212.757812 164.988281 Z M 215.75 109.777344 L 225.082031 100.4375 L 234.765625 110.121094 L 225.429688 119.457031 L 215.75 119.457031 Z M 215.75 109.777344 " fill-opacity="1" fill-rule="nonzero"/><g fill="#ffffff" fill-opacity="1"><g transform="translate(102.269529, 278.46177)"><g><path d="M 0.28125 -23.09375 L 0.28125 -28.875 L 20.578125 -28.875 L 20.578125 -23.09375 L 13.71875 -23.09375 L 13.71875 0 L 7.140625 0 L 7.140625 -23.09375 Z M 0.28125 -23.09375 "/></g></g></g><g fill="#ffffff" fill-opacity="1"><g transform="translate(123.124817, 278.46177)"><g><path d="M 2.09375 0 L 2.09375 -17.953125 L 8.296875 -17.953125 L 8.296875 -15.359375 L 8.359375 -15.359375 C 8.410156 -15.453125 8.488281 -15.566406 8.59375 -15.703125 C 8.695312 -15.847656 8.921875 -16.09375 9.265625 -16.4375 C 9.617188 -16.789062 9.992188 -17.109375 10.390625 -17.390625 C 10.785156 -17.671875 11.296875 -17.921875 11.921875 -18.140625 C 12.554688 -18.367188 13.203125 -18.484375 13.859375 -18.484375 C 14.535156 -18.484375 15.195312 -18.390625 15.84375 -18.203125 C 16.5 -18.015625 16.984375 -17.828125 17.296875 -17.640625 L 17.78125 -17.359375 L 15.1875 -12.109375 C 14.414062 -12.765625 13.34375 -13.09375 11.96875 -13.09375 C 11.21875 -13.09375 10.570312 -12.925781 10.03125 -12.59375 C 9.5 -12.269531 9.125 -11.875 8.90625 -11.40625 C 8.6875 -10.9375 8.53125 -10.539062 8.4375 -10.21875 C 8.34375 -9.894531 8.296875 -9.640625 8.296875 -9.453125 L 8.296875 0 Z M 2.09375 0 "/></g></g></g><g fill="#ffffff" fill-opacity="1"><g transform="translate(140.550883, 278.46177)"><g><path d="M 3.328125 -2.21875 C 1.648438 -4.050781 0.8125 -6.296875 0.8125 -8.953125 C 0.8125 -11.617188 1.648438 -13.875 3.328125 -15.71875 C 5.003906 -17.5625 7.140625 -18.484375 9.734375 -18.484375 C 12.109375 -18.484375 14.066406 -17.734375 15.609375 -16.234375 L 15.609375 -17.953125 L 21.8125 -17.953125 L 21.8125 0 L 15.6875 0 L 15.6875 -2.03125 L 15.609375 -2.03125 C 14.066406 -0.320312 12.109375 0.53125 9.734375 0.53125 C 7.140625 0.53125 5.003906 -0.382812 3.328125 -2.21875 Z M 8.59375 -12 C 7.789062 -11.207031 7.390625 -10.191406 7.390625 -8.953125 C 7.390625 -7.722656 7.769531 -6.71875 8.53125 -5.9375 C 9.300781 -5.15625 10.316406 -4.765625 11.578125 -4.765625 C 12.796875 -4.765625 13.796875 -5.160156 14.578125 -5.953125 C 15.359375 -6.742188 15.75 -7.742188 15.75 -8.953125 C 15.75 -10.191406 15.34375 -11.207031 14.53125 -12 C 13.726562 -12.789062 12.742188 -13.1875 11.578125 -13.1875 C 10.390625 -13.1875 9.394531 -12.789062 8.59375 -12 Z M 8.59375 -12 "/></g></g></g><g fill="#ffffff" fill-opacity="1"><g transform="translate(164.450483, 278.46177)"><g><path d="M 2.09375 0 L 2.09375 -17.953125 L 8.296875 -17.953125 L 8.296875 -16.0625 L 8.359375 -16.0625 C 9.972656 -17.675781 11.691406 -18.484375 13.515625 -18.484375 C 14.398438 -18.484375 15.28125 -18.363281 16.15625 -18.125 C 17.03125 -17.894531 17.867188 -17.535156 18.671875 -17.046875 C 19.472656 -16.554688 20.125 -15.859375 20.625 -14.953125 C 21.132812 -14.054688 21.390625 -13.015625 21.390625 -11.828125 L 21.390625 0 L 15.1875 0 L 15.1875 -10.15625 C 15.1875 -11.082031 14.890625 -11.894531 14.296875 -12.59375 C 13.703125 -13.300781 12.925781 -13.65625 11.96875 -13.65625 C 11.03125 -13.65625 10.179688 -13.289062 9.421875 -12.5625 C 8.671875 -11.84375 8.296875 -11.039062 8.296875 -10.15625 L 8.296875 0 Z M 2.09375 0 "/></g></g></g><g fill="#ffffff" fill-opacity="1"><g transform="translate(187.580261, 278.46177)"><g><path d="M 9.90625 -18.484375 C 10.925781 -18.484375 11.9375 -18.363281 12.9375 -18.125 C 13.945312 -17.894531 14.695312 -17.664062 15.1875 -17.4375 L 15.921875 -17.078125 L 13.890625 -13.015625 C 12.492188 -13.765625 11.164062 -14.140625 9.90625 -14.140625 C 9.207031 -14.140625 8.710938 -14.0625 8.421875 -13.90625 C 8.128906 -13.757812 7.984375 -13.476562 7.984375 -13.0625 C 7.984375 -12.96875 7.992188 -12.875 8.015625 -12.78125 C 8.035156 -12.6875 8.082031 -12.597656 8.15625 -12.515625 C 8.226562 -12.429688 8.289062 -12.359375 8.34375 -12.296875 C 8.40625 -12.242188 8.503906 -12.179688 8.640625 -12.109375 C 8.785156 -12.035156 8.894531 -11.984375 8.96875 -11.953125 C 9.050781 -11.921875 9.1875 -11.867188 9.375 -11.796875 C 9.5625 -11.722656 9.703125 -11.664062 9.796875 -11.625 C 9.890625 -11.59375 10.046875 -11.539062 10.265625 -11.46875 C 10.492188 -11.40625 10.664062 -11.363281 10.78125 -11.34375 C 11.5 -11.132812 12.125 -10.898438 12.65625 -10.640625 C 13.195312 -10.378906 13.765625 -10.023438 14.359375 -9.578125 C 14.960938 -9.140625 15.425781 -8.582031 15.75 -7.90625 C 16.070312 -7.226562 16.234375 -6.457031 16.234375 -5.59375 C 16.234375 -1.507812 13.398438 0.53125 7.734375 0.53125 C 6.453125 0.53125 5.234375 0.332031 4.078125 -0.0625 C 2.921875 -0.46875 2.085938 -0.867188 1.578125 -1.265625 L 0.8125 -1.890625 L 3.328125 -6.125 C 3.515625 -5.957031 3.757812 -5.765625 4.0625 -5.546875 C 4.363281 -5.328125 4.910156 -5.023438 5.703125 -4.640625 C 6.492188 -4.253906 7.179688 -4.0625 7.765625 -4.0625 C 9.046875 -4.0625 9.6875 -4.492188 9.6875 -5.359375 C 9.6875 -5.753906 9.523438 -6.0625 9.203125 -6.28125 C 8.878906 -6.5 8.328125 -6.75 7.546875 -7.03125 C 6.765625 -7.3125 6.148438 -7.570312 5.703125 -7.8125 C 4.585938 -8.394531 3.703125 -9.050781 3.046875 -9.78125 C 2.390625 -10.519531 2.0625 -11.492188 2.0625 -12.703125 C 2.0625 -14.523438 2.765625 -15.941406 4.171875 -16.953125 C 5.585938 -17.972656 7.5 -18.484375 9.90625 -18.484375 Z M 9.90625 -18.484375 "/></g></g></g><g fill="#ffffff" fill-opacity="1"><g transform="translate(204.796374, 278.46177)"><g><path d="M 2.09375 0 L 2.09375 -17.953125 L 8.296875 -17.953125 L 8.296875 -16.0625 L 8.359375 -16.0625 C 9.972656 -17.675781 11.691406 -18.484375 13.515625 -18.484375 C 14.816406 -18.484375 16.039062 -18.210938 17.1875 -17.671875 C 18.332031 -17.140625 19.195312 -16.3125 19.78125 -15.1875 C 21.59375 -17.382812 23.570312 -18.484375 25.71875 -18.484375 C 27.632812 -18.484375 29.28125 -17.945312 30.65625 -16.875 C 32.03125 -15.800781 32.71875 -14.117188 32.71875 -11.828125 L 32.71875 0 L 26.53125 0 L 26.53125 -10.15625 C 26.53125 -11.101562 26.265625 -11.898438 25.734375 -12.546875 C 25.210938 -13.191406 24.425781 -13.515625 23.375 -13.515625 C 22.46875 -13.515625 21.773438 -13.238281 21.296875 -12.6875 C 20.816406 -12.132812 20.554688 -11.472656 20.515625 -10.703125 L 20.515625 0 L 14.3125 0 L 14.3125 -10.15625 C 14.3125 -11.101562 14.046875 -11.898438 13.515625 -12.546875 C 12.992188 -13.191406 12.210938 -13.515625 11.171875 -13.515625 C 10.210938 -13.515625 9.492188 -13.210938 9.015625 -12.609375 C 8.535156 -12.015625 8.296875 -11.3125 8.296875 -10.5 L 8.296875 0 Z M 2.09375 0 "/></g></g></g><g fill="#ffffff" fill-opacity="1"><g transform="translate(239.263585, 278.46177)"><g><path d="M 2.6875 -27.953125 C 3.414062 -28.679688 4.28125 -29.046875 5.28125 -29.046875 C 6.289062 -29.046875 7.15625 -28.679688 7.875 -27.953125 C 8.59375 -27.234375 8.953125 -26.375 8.953125 -25.375 C 8.953125 -24.375 8.59375 -23.507812 7.875 -22.78125 C 7.15625 -22.0625 6.289062 -21.703125 5.28125 -21.703125 C 4.28125 -21.703125 3.414062 -22.0625 2.6875 -22.78125 C 1.96875 -23.507812 1.609375 -24.375 1.609375 -25.375 C 1.609375 -26.375 1.96875 -27.234375 2.6875 -27.953125 Z M 2.09375 -17.953125 L 2.09375 0 L 8.296875 0 L 8.296875 -17.953125 Z M 2.09375 -17.953125 "/></g></g></g><g fill="#ffffff" fill-opacity="1"><g transform="translate(249.831196, 278.46177)"><g><path d="M 22.890625 0 L 15.40625 0 L 11.4375 -5.078125 L 7.484375 0 L 0 0 L 7.671875 -9.375 L 1.078125 -17.953125 L 8.328125 -17.953125 L 11.4375 -13.796875 L 14.5625 -17.953125 L 21.8125 -17.953125 L 15.21875 -9.375 Z M 22.890625 0 "/></g></g></g><g fill="#5271ff" fill-opacity="1"><g transform="translate(69.308587, 304.861826)"><g><path d="M 3.640625 -9.09375 L 0.0625 -9.09375 L 0.0625 -11.203125 L 9.828125 -11.203125 L 9.828125 -9.09375 L 6.234375 -9.09375 L 6.234375 0 L 3.640625 0 Z M 3.640625 -9.09375 "/></g></g></g><g fill="#5271ff" fill-opacity="1"><g transform="translate(87.194197, 304.861826)"><g><path d="M 8.46875 0 L 6.296875 -3.125 L 3.921875 -3.125 L 3.921875 0 L 1.328125 0 L 1.328125 -11.203125 L 6.171875 -11.203125 C 7.160156 -11.203125 8.019531 -11.035156 8.75 -10.703125 C 9.488281 -10.367188 10.054688 -9.898438 10.453125 -9.296875 C 10.847656 -8.691406 11.046875 -7.972656 11.046875 -7.140625 C 11.046875 -6.304688 10.84375 -5.585938 10.4375 -4.984375 C 10.039062 -4.378906 9.472656 -3.914062 8.734375 -3.59375 L 11.25 0 Z M 8.421875 -7.140625 C 8.421875 -7.765625 8.21875 -8.242188 7.8125 -8.578125 C 7.40625 -8.921875 6.8125 -9.09375 6.03125 -9.09375 L 3.921875 -9.09375 L 3.921875 -5.1875 L 6.03125 -5.1875 C 6.8125 -5.1875 7.40625 -5.351562 7.8125 -5.6875 C 8.21875 -6.03125 8.421875 -6.515625 8.421875 -7.140625 Z M 8.421875 -7.140625 "/></g></g></g><g fill="#5271ff" fill-opacity="1"><g transform="translate(106.951362, 304.861826)"><g><path d="M 8.703125 -2.40625 L 3.5 -2.40625 L 2.515625 0 L -0.140625 0 L 4.84375 -11.203125 L 7.40625 -11.203125 L 12.421875 0 L 9.703125 0 Z M 7.890625 -4.375 L 6.109375 -8.65625 L 4.34375 -4.375 Z M 7.890625 -4.375 "/></g></g></g><g fill="#5271ff" fill-opacity="1"><g transform="translate(127.204398, 304.861826)"><g><path d="M 11.59375 -11.203125 L 11.59375 0 L 9.46875 0 L 3.890625 -6.796875 L 3.890625 0 L 1.328125 0 L 1.328125 -11.203125 L 3.46875 -11.203125 L 9.046875 -4.40625 L 9.046875 -11.203125 Z M 11.59375 -11.203125 "/></g></g></g><g fill="#5271ff" fill-opacity="1"><g transform="translate(148.129284, 304.861826)"><g><path d="M 5.015625 0.1875 C 4.128906 0.1875 3.269531 0.0664062 2.4375 -0.171875 C 1.613281 -0.410156 0.953125 -0.722656 0.453125 -1.109375 L 1.328125 -3.0625 C 1.804688 -2.707031 2.375 -2.421875 3.03125 -2.203125 C 3.695312 -1.992188 4.363281 -1.890625 5.03125 -1.890625 C 5.757812 -1.890625 6.300781 -2 6.65625 -2.21875 C 7.007812 -2.4375 7.1875 -2.726562 7.1875 -3.09375 C 7.1875 -3.351562 7.082031 -3.570312 6.875 -3.75 C 6.664062 -3.925781 6.394531 -4.066406 6.0625 -4.171875 C 5.738281 -4.285156 5.300781 -4.40625 4.75 -4.53125 C 3.894531 -4.726562 3.195312 -4.925781 2.65625 -5.125 C 2.113281 -5.332031 1.644531 -5.660156 1.25 -6.109375 C 0.863281 -6.554688 0.671875 -7.15625 0.671875 -7.90625 C 0.671875 -8.550781 0.847656 -9.140625 1.203125 -9.671875 C 1.554688 -10.203125 2.085938 -10.617188 2.796875 -10.921875 C 3.503906 -11.234375 4.367188 -11.390625 5.390625 -11.390625 C 6.109375 -11.390625 6.804688 -11.300781 7.484375 -11.125 C 8.171875 -10.957031 8.769531 -10.71875 9.28125 -10.40625 L 8.484375 -8.4375 C 7.441406 -9.019531 6.40625 -9.3125 5.375 -9.3125 C 4.644531 -9.3125 4.109375 -9.191406 3.765625 -8.953125 C 3.421875 -8.722656 3.25 -8.414062 3.25 -8.03125 C 3.25 -7.644531 3.445312 -7.359375 3.84375 -7.171875 C 4.25 -6.984375 4.863281 -6.800781 5.6875 -6.625 C 6.53125 -6.414062 7.222656 -6.210938 7.765625 -6.015625 C 8.316406 -5.816406 8.785156 -5.5 9.171875 -5.0625 C 9.566406 -4.625 9.765625 -4.03125 9.765625 -3.28125 C 9.765625 -2.632812 9.582031 -2.046875 9.21875 -1.515625 C 8.863281 -0.992188 8.328125 -0.578125 7.609375 -0.265625 C 6.898438 0.0351562 6.035156 0.1875 5.015625 0.1875 Z M 5.015625 0.1875 "/></g></g></g><g fill="#5271ff" fill-opacity="1"><g transform="translate(166.334819, 304.861826)"><g><path d="M 11.515625 0 L 11.5 -6.71875 L 8.203125 -1.1875 L 7.046875 -1.1875 L 3.765625 -6.578125 L 3.765625 0 L 1.328125 0 L 1.328125 -11.203125 L 3.46875 -11.203125 L 7.65625 -4.234375 L 11.796875 -11.203125 L 13.921875 -11.203125 L 13.953125 0 Z M 11.515625 0 "/></g></g></g><g fill="#5271ff" fill-opacity="1"><g transform="translate(189.611138, 304.861826)"><g><path d="M 1.328125 -11.203125 L 3.921875 -11.203125 L 3.921875 0 L 1.328125 0 Z M 1.328125 -11.203125 "/></g></g></g><g fill="#5271ff" fill-opacity="1"><g transform="translate(202.857857, 304.861826)"><g><path d="M 5.015625 0.1875 C 4.128906 0.1875 3.269531 0.0664062 2.4375 -0.171875 C 1.613281 -0.410156 0.953125 -0.722656 0.453125 -1.109375 L 1.328125 -3.0625 C 1.804688 -2.707031 2.375 -2.421875 3.03125 -2.203125 C 3.695312 -1.992188 4.363281 -1.890625 5.03125 -1.890625 C 5.757812 -1.890625 6.300781 -2 6.65625 -2.21875 C 7.007812 -2.4375 7.1875 -2.726562 7.1875 -3.09375 C 7.1875 -3.351562 7.082031 -3.570312 6.875 -3.75 C 6.664062 -3.925781 6.394531 -4.066406 6.0625 -4.171875 C 5.738281 -4.285156 5.300781 -4.40625 4.75 -4.53125 C 3.894531 -4.726562 3.195312 -4.925781 2.65625 -5.125 C 2.113281 -5.332031 1.644531 -5.660156 1.25 -6.109375 C 0.863281 -6.554688 0.671875 -7.15625 0.671875 -7.90625 C 0.671875 -8.550781 0.847656 -9.140625 1.203125 -9.671875 C 1.554688 -10.203125 2.085938 -10.617188 2.796875 -10.921875 C 3.503906 -11.234375 4.367188 -11.390625 5.390625 -11.390625 C 6.109375 -11.390625 6.804688 -11.300781 7.484375 -11.125 C 8.171875 -10.957031 8.769531 -10.71875 9.28125 -10.40625 L 8.484375 -8.4375 C 7.441406 -9.019531 6.40625 -9.3125 5.375 -9.3125 C 4.644531 -9.3125 4.109375 -9.191406 3.765625 -8.953125 C 3.421875 -8.722656 3.25 -8.414062 3.25 -8.03125 C 3.25 -7.644531 3.445312 -7.359375 3.84375 -7.171875 C 4.25 -6.984375 4.863281 -6.800781 5.6875 -6.625 C 6.53125 -6.414062 7.222656 -6.210938 7.765625 -6.015625 C 8.316406 -5.816406 8.785156 -5.5 9.171875 -5.0625 C 9.566406 -4.625 9.765625 -4.03125 9.765625 -3.28125 C 9.765625 -2.632812 9.582031 -2.046875 9.21875 -1.515625 C 8.863281 -0.992188 8.328125 -0.578125 7.609375 -0.265625 C 6.898438 0.0351562 6.035156 0.1875 5.015625 0.1875 Z M 5.015625 0.1875 "/></g></g></g><g fill="#5271ff" fill-opacity="1"><g transform="translate(221.063391, 304.861826)"><g><path d="M 1.328125 -11.203125 L 3.921875 -11.203125 L 3.921875 0 L 1.328125 0 Z M 1.328125 -11.203125 "/></g></g></g><g fill="#5271ff" fill-opacity="1"><g transform="translate(234.310109, 304.861826)"><g><path d="M 6.75 0.1875 C 5.59375 0.1875 4.546875 -0.0625 3.609375 -0.5625 C 2.671875 -1.0625 1.9375 -1.75 1.40625 -2.625 C 0.882812 -3.507812 0.625 -4.5 0.625 -5.59375 C 0.625 -6.695312 0.882812 -7.6875 1.40625 -8.5625 C 1.9375 -9.445312 2.671875 -10.140625 3.609375 -10.640625 C 4.546875 -11.140625 5.59375 -11.390625 6.75 -11.390625 C 7.914062 -11.390625 8.960938 -11.140625 9.890625 -10.640625 C 10.816406 -10.140625 11.546875 -9.445312 12.078125 -8.5625 C 12.609375 -7.6875 12.875 -6.695312 12.875 -5.59375 C 12.875 -4.5 12.609375 -3.507812 12.078125 -2.625 C 11.546875 -1.75 10.816406 -1.0625 9.890625 -0.5625 C 8.960938 -0.0625 7.914062 0.1875 6.75 0.1875 Z M 6.75 -2.015625 C 7.414062 -2.015625 8.015625 -2.164062 8.546875 -2.46875 C 9.078125 -2.769531 9.492188 -3.191406 9.796875 -3.734375 C 10.097656 -4.285156 10.25 -4.90625 10.25 -5.59375 C 10.25 -6.289062 10.097656 -6.910156 9.796875 -7.453125 C 9.492188 -7.992188 9.078125 -8.414062 8.546875 -8.71875 C 8.015625 -9.03125 7.414062 -9.1875 6.75 -9.1875 C 6.09375 -9.1875 5.492188 -9.03125 4.953125 -8.71875 C 4.421875 -8.414062 4.003906 -7.992188 3.703125 -7.453125 C 3.398438 -6.910156 3.25 -6.289062 3.25 -5.59375 C 3.25 -4.90625 3.398438 -4.285156 3.703125 -3.734375 C 4.003906 -3.191406 4.421875 -2.769531 4.953125 -2.46875 C 5.492188 -2.164062 6.09375 -2.015625 6.75 -2.015625 Z M 6.75 -2.015625 "/></g></g></g><g fill="#5271ff" fill-opacity="1"><g transform="translate(255.810856, 304.861826)"><g><path d="M 11.59375 -11.203125 L 11.59375 0 L 9.46875 0 L 3.890625 -6.796875 L 3.890625 0 L 1.328125 0 L 1.328125 -11.203125 L 3.46875 -11.203125 L 9.046875 -4.40625 L 9.046875 -11.203125 Z M 11.59375 -11.203125 "/></g></g></g><g fill="#5271ff" fill-opacity="1"><g transform="translate(276.735735, 304.861826)"><g><path d="M 10 -2.078125 L 10 0 L 1.328125 0 L 1.328125 -11.203125 L 9.796875 -11.203125 L 9.796875 -9.125 L 3.90625 -9.125 L 3.90625 -6.6875 L 9.109375 -6.6875 L 9.109375 -4.671875 L 3.90625 -4.671875 L 3.90625 -2.078125 Z M 10 -2.078125 "/></g></g></g><g fill="#5271ff" fill-opacity="1"><g transform="translate(295.46914, 304.861826)"><g><path d="M 5.015625 0.1875 C 4.128906 0.1875 3.269531 0.0664062 2.4375 -0.171875 C 1.613281 -0.410156 0.953125 -0.722656 0.453125 -1.109375 L 1.328125 -3.0625 C 1.804688 -2.707031 2.375 -2.421875 3.03125 -2.203125 C 3.695312 -1.992188 4.363281 -1.890625 5.03125 -1.890625 C 5.757812 -1.890625 6.300781 -2 6.65625 -2.21875 C 7.007812 -2.4375 7.1875 -2.726562 7.1875 -3.09375 C 7.1875 -3.351562 7.082031 -3.570312 6.875 -3.75 C 6.664062 -3.925781 6.394531 -4.066406 6.0625 -4.171875 C 5.738281 -4.285156 5.300781 -4.40625 4.75 -4.53125 C 3.894531 -4.726562 3.195312 -4.925781 2.65625 -5.125 C 2.113281 -5.332031 1.644531 -5.660156 1.25 -6.109375 C 0.863281 -6.554688 0.671875 -7.15625 0.671875 -7.90625 C 0.671875 -8.550781 0.847656 -9.140625 1.203125 -9.671875 C 1.554688 -10.203125 2.085938 -10.617188 2.796875 -10.921875 C 3.503906 -11.234375 4.367188 -11.390625 5.390625 -11.390625 C 6.109375 -11.390625 6.804688 -11.300781 7.484375 -11.125 C 8.171875 -10.957031 8.769531 -10.71875 9.28125 -10.40625 L 8.484375 -8.4375 C 7.441406 -9.019531 6.40625 -9.3125 5.375 -9.3125 C 4.644531 -9.3125 4.109375 -9.191406 3.765625 -8.953125 C 3.421875 -8.722656 3.25 -8.414062 3.25 -8.03125 C 3.25 -7.644531 3.445312 -7.359375 3.84375 -7.171875 C 4.25 -6.984375 4.863281 -6.800781 5.6875 -6.625 C 6.53125 -6.414062 7.222656 -6.210938 7.765625 -6.015625 C 8.316406 -5.816406 8.785156 -5.5 9.171875 -5.0625 C 9.566406 -4.625 9.765625 -4.03125 9.765625 -3.28125 C 9.765625 -2.632812 9.582031 -2.046875 9.21875 -1.515625 C 8.863281 -0.992188 8.328125 -0.578125 7.609375 -0.265625 C 6.898438 0.0351562 6.035156 0.1875 5.015625 0.1875 Z M 5.015625 0.1875 "/></g></g></g><g fill="#5271ff" fill-opacity="1"><g transform="translate(84.953118, 326.611824)"><g><path d="M 8.703125 -2.40625 L 3.5 -2.40625 L 2.515625 0 L -0.140625 0 L 4.84375 -11.203125 L 7.40625 -11.203125 L 12.421875 0 L 9.703125 0 Z M 7.890625 -4.375 L 6.109375 -8.65625 L 4.34375 -4.375 Z M 7.890625 -4.375 "/></g></g></g><g fill="#5271ff" fill-opacity="1"><g transform="translate(105.206154, 326.611824)"><g><path d="M 6.296875 0.1875 C 4.703125 0.1875 3.457031 -0.253906 2.5625 -1.140625 C 1.675781 -2.023438 1.234375 -3.285156 1.234375 -4.921875 L 1.234375 -11.203125 L 3.828125 -11.203125 L 3.828125 -5.03125 C 3.828125 -3.019531 4.65625 -2.015625 6.3125 -2.015625 C 7.125 -2.015625 7.742188 -2.253906 8.171875 -2.734375 C 8.597656 -3.222656 8.8125 -3.988281 8.8125 -5.03125 L 8.8125 -11.203125 L 11.375 -11.203125 L 11.375 -4.921875 C 11.375 -3.285156 10.925781 -2.023438 10.03125 -1.140625 C 9.144531 -0.253906 7.898438 0.1875 6.296875 0.1875 Z M 6.296875 0.1875 "/></g></g></g><g fill="#5271ff" fill-opacity="1"><g transform="translate(125.811109, 326.611824)"><g><path d="M 3.640625 -9.09375 L 0.0625 -9.09375 L 0.0625 -11.203125 L 9.828125 -11.203125 L 9.828125 -9.09375 L 6.234375 -9.09375 L 6.234375 0 L 3.640625 0 Z M 3.640625 -9.09375 "/></g></g></g><g fill="#5271ff" fill-opacity="1"><g transform="translate(143.696718, 326.611824)"><g><path d="M 6.75 0.1875 C 5.59375 0.1875 4.546875 -0.0625 3.609375 -0.5625 C 2.671875 -1.0625 1.9375 -1.75 1.40625 -2.625 C 0.882812 -3.507812 0.625 -4.5 0.625 -5.59375 C 0.625 -6.695312 0.882812 -7.6875 1.40625 -8.5625 C 1.9375 -9.445312 2.671875 -10.140625 3.609375 -10.640625 C 4.546875 -11.140625 5.59375 -11.390625 6.75 -11.390625 C 7.914062 -11.390625 8.960938 -11.140625 9.890625 -10.640625 C 10.816406 -10.140625 11.546875 -9.445312 12.078125 -8.5625 C 12.609375 -7.6875 12.875 -6.695312 12.875 -5.59375 C 12.875 -4.5 12.609375 -3.507812 12.078125 -2.625 C 11.546875 -1.75 10.816406 -1.0625 9.890625 -0.5625 C 8.960938 -0.0625 7.914062 0.1875 6.75 0.1875 Z M 6.75 -2.015625 C 7.414062 -2.015625 8.015625 -2.164062 8.546875 -2.46875 C 9.078125 -2.769531 9.492188 -3.191406 9.796875 -3.734375 C 10.097656 -4.285156 10.25 -4.90625 10.25 -5.59375 C 10.25 -6.289062 10.097656 -6.910156 9.796875 -7.453125 C 9.492188 -7.992188 9.078125 -8.414062 8.546875 -8.71875 C 8.015625 -9.03125 7.414062 -9.1875 6.75 -9.1875 C 6.09375 -9.1875 5.492188 -9.03125 4.953125 -8.71875 C 4.421875 -8.414062 4.003906 -7.992188 3.703125 -7.453125 C 3.398438 -6.910156 3.25 -6.289062 3.25 -5.59375 C 3.25 -4.90625 3.398438 -4.285156 3.703125 -3.734375 C 4.003906 -3.191406 4.421875 -2.769531 4.953125 -2.46875 C 5.492188 -2.164062 6.09375 -2.015625 6.75 -2.015625 Z M 6.75 -2.015625 "/></g></g></g><g fill="#5271ff" fill-opacity="1"><g transform="translate(165.197459, 326.611824)"><g><path d="M 11.515625 0 L 11.5 -6.71875 L 8.203125 -1.1875 L 7.046875 -1.1875 L 3.765625 -6.578125 L 3.765625 0 L 1.328125 0 L 1.328125 -11.203125 L 3.46875 -11.203125 L 7.65625 -4.234375 L 11.796875 -11.203125 L 13.921875 -11.203125 L 13.953125 0 Z M 11.515625 0 "/></g></g></g><g fill="#5271ff" fill-opacity="1"><g transform="translate(188.473778, 326.611824)"><g><path d="M 8.703125 -2.40625 L 3.5 -2.40625 L 2.515625 0 L -0.140625 0 L 4.84375 -11.203125 L 7.40625 -11.203125 L 12.421875 0 L 9.703125 0 Z M 7.890625 -4.375 L 6.109375 -8.65625 L 4.34375 -4.375 Z M 7.890625 -4.375 "/></g></g></g><g fill="#5271ff" fill-opacity="1"><g transform="translate(208.726821, 326.611824)"><g><path d="M 3.640625 -9.09375 L 0.0625 -9.09375 L 0.0625 -11.203125 L 9.828125 -11.203125 L 9.828125 -9.09375 L 6.234375 -9.09375 L 6.234375 0 L 3.640625 0 Z M 3.640625 -9.09375 "/></g></g></g><g fill="#5271ff" fill-opacity="1"><g transform="translate(226.612425, 326.611824)"><g><path d="M 1.328125 -11.203125 L 3.921875 -11.203125 L 3.921875 0 L 1.328125 0 Z M 1.328125 -11.203125 "/></g></g></g><g fill="#5271ff" fill-opacity="1"><g transform="translate(239.859143, 326.611824)"><g><path d="M 6.6875 0.1875 C 5.539062 0.1875 4.503906 -0.0546875 3.578125 -0.546875 C 2.660156 -1.046875 1.9375 -1.734375 1.40625 -2.609375 C 0.882812 -3.492188 0.625 -4.488281 0.625 -5.59375 C 0.625 -6.707031 0.882812 -7.703125 1.40625 -8.578125 C 1.9375 -9.460938 2.660156 -10.148438 3.578125 -10.640625 C 4.503906 -11.140625 5.546875 -11.390625 6.703125 -11.390625 C 7.671875 -11.390625 8.546875 -11.21875 9.328125 -10.875 C 10.117188 -10.539062 10.78125 -10.050781 11.3125 -9.40625 L 9.640625 -7.875 C 8.890625 -8.75 7.953125 -9.1875 6.828125 -9.1875 C 6.140625 -9.1875 5.519531 -9.03125 4.96875 -8.71875 C 4.425781 -8.414062 4.003906 -7.992188 3.703125 -7.453125 C 3.398438 -6.910156 3.25 -6.289062 3.25 -5.59375 C 3.25 -4.90625 3.398438 -4.285156 3.703125 -3.734375 C 4.003906 -3.191406 4.425781 -2.769531 4.96875 -2.46875 C 5.519531 -2.164062 6.140625 -2.015625 6.828125 -2.015625 C 7.953125 -2.015625 8.890625 -2.457031 9.640625 -3.34375 L 11.3125 -1.8125 C 10.78125 -1.15625 10.117188 -0.65625 9.328125 -0.3125 C 8.535156 0.0195312 7.65625 0.1875 6.6875 0.1875 Z M 6.6875 0.1875 "/></g></g></g><g fill="#5271ff" fill-opacity="1"><g transform="translate(259.584316, 326.611824)"><g><path d="M 8.703125 -2.40625 L 3.5 -2.40625 L 2.515625 0 L -0.140625 0 L 4.84375 -11.203125 L 7.40625 -11.203125 L 12.421875 0 L 9.703125 0 Z M 7.890625 -4.375 L 6.109375 -8.65625 L 4.34375 -4.375 Z M 7.890625 -4.375 "/></g></g></g><g fill="#5271ff" fill-opacity="1"><g transform="translate(279.837359, 326.611824)"><g><path d="M 5.015625 0.1875 C 4.128906 0.1875 3.269531 0.0664062 2.4375 -0.171875 C 1.613281 -0.410156 0.953125 -0.722656 0.453125 -1.109375 L 1.328125 -3.0625 C 1.804688 -2.707031 2.375 -2.421875 3.03125 -2.203125 C 3.695312 -1.992188 4.363281 -1.890625 5.03125 -1.890625 C 5.757812 -1.890625 6.300781 -2 6.65625 -2.21875 C 7.007812 -2.4375 7.1875 -2.726562 7.1875 -3.09375 C 7.1875 -3.351562 7.082031 -3.570312 6.875 -3.75 C 6.664062 -3.925781 6.394531 -4.066406 6.0625 -4.171875 C 5.738281 -4.285156 5.300781 -4.40625 4.75 -4.53125 C 3.894531 -4.726562 3.195312 -4.925781 2.65625 -5.125 C 2.113281 -5.332031 1.644531 -5.660156 1.25 -6.109375 C 0.863281 -6.554688 0.671875 -7.15625 0.671875 -7.90625 C 0.671875 -8.550781 0.847656 -9.140625 1.203125 -9.671875 C 1.554688 -10.203125 2.085938 -10.617188 2.796875 -10.921875 C 3.503906 -11.234375 4.367188 -11.390625 5.390625 -11.390625 C 6.109375 -11.390625 6.804688 -11.300781 7.484375 -11.125 C 8.171875 -10.957031 8.769531 -10.71875 9.28125 -10.40625 L 8.484375 -8.4375 C 7.441406 -9.019531 6.40625 -9.3125 5.375 -9.3125 C 4.644531 -9.3125 4.109375 -9.191406 3.765625 -8.953125 C 3.421875 -8.722656 3.25 -8.414062 3.25 -8.03125 C 3.25 -7.644531 3.445312 -7.359375 3.84375 -7.171875 C 4.25 -6.984375 4.863281 -6.800781 5.6875 -6.625 C 6.53125 -6.414062 7.222656 -6.210938 7.765625 -6.015625 C 8.316406 -5.816406 8.785156 -5.5 9.171875 -5.0625 C 9.566406 -4.625 9.765625 -4.03125 9.765625 -3.28125 C 9.765625 -2.632812 9.582031 -2.046875 9.21875 -1.515625 C 8.863281 -0.992188 8.328125 -0.578125 7.609375 -0.265625 C 6.898438 0.0351562 6.035156 0.1875 5.015625 0.1875 Z M 5.015625 0.1875 "/></g></g></g></svg>